<svg id="calidad" xmlns="http://www.w3.org/2000/svg" viewBox="0 0 1443 1443"><defs><style>.cls-1,.cls-3{fill:#fff;}.cls-2{fill:#42c6ba;}.cls-3{stroke:#42c6ba;stroke-miterlimit:10;stroke-width:4px;}</style></defs><title>calidad</title><path class="cls-1" d="M750.5,1470A720.69,720.69,0,0,1,470.05,85.62,720.69,720.69,0,0,1,1031,1413.38,716,716,0,0,1,750.5,1470Z" transform="translate(-29 -28)"/><path class="cls-2" d="M750.5,30a716.11,716.11,0,0,1,402.28,122.88,721.62,721.62,0,0,1,260.68,316.56,718.54,718.54,0,0,1-66.34,682.34,721.62,721.62,0,0,1-316.56,260.68,718.54,718.54,0,0,1-682.34-66.34A721.62,721.62,0,0,1,87.54,1029.56a718.54,718.54,0,0,1,66.34-682.34A721.62,721.62,0,0,1,470.44,86.54,715,715,0,0,1,750.5,30m0-2C352,28,29,351,29,749.5S352,1471,750.5,1471,1472,1148,1472,749.5,1149,28,750.5,28Z" transform="translate(-29 -28)"/><path class="cls-1" d="M750.5,1466A716.69,716.69,0,0,1,471.61,89.3a716.69,716.69,0,0,1,557.78,1320.4A712,712,0,0,1,750.5,1466Z" transform="translate(-29 -28)"/><path class="cls-2" d="M750.5,38a708.16,708.16,0,0,1,397.8,121.51,713.59,713.59,0,0,1,257.79,313.05,710.55,710.55,0,0,1-65.6,674.74,713.59,713.59,0,0,1-313,257.79,710.55,710.55,0,0,1-674.74-65.6,713.59,713.59,0,0,1-257.79-313,710.55,710.55,0,0,1,65.6-674.74A713.59,713.59,0,0,1,473.56,93.91,707,707,0,0,1,750.5,38m0-10C352,28,29,351,29,749.5S352,1471,750.5,1471,1472,1148,1472,749.5,1149,28,750.5,28Z" transform="translate(-29 -28)"/><path class="cls-1" d="M228.24,1027.79c-6.16-11.55-12-23.42-17.41-35.43L993.36,209.83c12,5.42,23.88,11.25,35.43,17.41Z" transform="translate(-29 -28)"/><path class="cls-2" d="M994.45,215.82c8.77,4,17.47,8.26,26,12.68l-790.95,791c-4.42-8.53-8.66-17.23-12.68-26L994.45,215.82m-2.19-12-787.4,787.4q10.19,22.92,22.17,44.8l810-810q-21.85-12-44.8-22.17Z" transform="translate(-29 -28)"/><path class="cls-1" d="M206.51,982.54c-5.46-12.74-10.49-25.68-15-38.59L945,190.53c12.91,4.49,25.85,9.52,38.59,15Z" transform="translate(-29 -28)"/><path class="cls-2" d="M946.26,196.29c9.52,3.37,19,7,28.49,10.94L208.23,973.75c-3.91-9.44-7.57-19-10.94-28.49l749-749m-2.64-11.51L185.78,942.62q8.49,24.84,19.08,48.64l787.4-787.4q-23.79-10.56-48.64-19.08Z" transform="translate(-29 -28)"/><path class="cls-1" d="M173.5,880.86c-3.38-14.9-6.2-30.05-8.41-45.17l671.6-671.6c15.12,2.21,30.27,5,45.17,8.41Z" transform="translate(-29 -28)"/><path class="cls-2" d="M838.44,169.41c11.17,1.68,22.35,3.69,33.42,6L176.43,870.86c-2.33-11.07-4.34-22.25-6-33.42l668-668m-3.52-10.62L159.79,833.92q4.1,28.88,10.89,56.83L891.75,169.68q-27.93-6.78-56.83-10.89Z" transform="translate(-29 -28)"/><path class="cls-1" d="M345,1180.37c-9.06-8.54-17.91-17.4-26.38-26.44l836.27-836.27c9,8.47,17.9,17.32,26.44,26.38Z" transform="translate(-29 -28)"/><path class="cls-2" d="M1155,324.63q9.88,9.4,19.37,19.32L345,1173.39q-9.88-9.47-19.32-19.37L1155,324.63m-.22-13.92L311.71,1153.8q16.07,17.42,33.45,33.52l843.16-843.16q-16.1-17.37-33.52-33.45Z" transform="translate(-29 -28)"/><path class="cls-1" d="M311.87,1146.57c-8.57-9.47-16.83-19.18-24.62-29l831.36-831.36c9.78,7.79,19.49,16.05,29,24.62Z" transform="translate(-29 -28)"/><path class="cls-2" d="M1119,293c7.18,5.81,14.31,11.86,21.32,18.11L312.07,1139.3c-6.25-7-12.3-14.14-18.11-21.32l825-825m-.76-13.39L280.57,1117.22q14.83,18.93,31.14,36.58L1154.8,310.71q-17.65-16.27-36.58-31.14Z" transform="translate(-29 -28)"/><path class="cls-1" d="M253.35,1070.39c-7.1-11-13.85-22.2-20.12-33.45l804.71-804.71c11.25,6.27,22.47,13,33.45,20.12Z" transform="translate(-29 -28)"/><path class="cls-2" d="M1038.79,238.45c8.28,4.68,16.53,9.62,24.67,14.77L254.22,1062.46c-5.15-8.14-10.09-16.39-14.77-24.67l799.34-799.34M1037.06,226l-810,810q11.9,21.68,25.51,42.22l826.74-826.74Q1058.74,238,1037.06,226Z" transform="translate(-29 -28)"/><path class="cls-1" d="M281.05,1109.67c-7.57-9.86-15-20.17-22.08-30.75l821-820.95c10.58,7.11,20.89,14.51,30.75,22.08Z" transform="translate(-29 -28)"/><path class="cls-2" d="M1080.53,264.43c7.7,5.24,15.24,10.64,22.56,16.13L281.56,1102.09c-5.49-7.32-10.89-14.86-16.13-22.56l815.1-815.1m-1.25-12.89L252.54,1078.28q13.26,20,28,38.94l837.65-837.65q-18.87-14.79-38.94-28Z" transform="translate(-29 -28)"/><path class="cls-1" d="M163.41,823.23c-2-16.15-3.35-32.51-4-48.81l616-616c16.3.68,32.66,2,48.81,4Z" transform="translate(-29 -28)"/><path class="cls-2" d="M777.41,163.47c12,.54,24,1.46,36,2.72L167.19,812.37c-1.26-11.94-2.18-24-2.72-36L777.41,163.47m-4-10.17L154.3,772.44a598.24,598.24,0,0,0,5.49,61.48L834.92,158.79a598.24,598.24,0,0,0-61.48-5.49Z" transform="translate(-29 -28)"/><path class="cls-1" d="M211,506.26a590.33,590.33,0,0,1,99.74-152.58l43.95-43.95A590.16,590.16,0,0,1,507.26,210Z" transform="translate(-29 -28)"/><path class="cls-2" d="M482.92,227.26,228.26,481.92a586.17,586.17,0,0,1,86.1-124.79l43.77-43.77a586.17,586.17,0,0,1,124.79-86.1M529,195.31A596.88,596.88,0,0,0,351.24,306.1L307.1,350.24A596.88,596.88,0,0,0,196.31,528L529,195.31Z" transform="translate(-29 -28)"/><path class="cls-1" d="M307.1,350.24l44.14-44.14A600.7,600.7,0,0,0,307.1,350.24Z" transform="translate(-29 -28)"/><path class="cls-2" d="M351.24,306.1a600.7,600.7,0,0,0-44.14,44.14l44.14-44.14Z" transform="translate(-29 -28)"/><path class="cls-1" d="M175.53,609.44a589.6,589.6,0,0,1,25-78.62L531.82,199.57a589.6,589.6,0,0,1,78.62-25Z" transform="translate(-29 -28)"/><path class="cls-2" d="M593.91,184,185,592.91a580.66,580.66,0,0,1,19.86-59.28L534.63,203.84A580.66,580.66,0,0,1,593.91,184m32.32-18.17A592.74,592.74,0,0,0,529,195.31L196.31,528a592.74,592.74,0,0,0-29.5,97.22L626.23,165.81Z" transform="translate(-29 -28)"/><path class="cls-1" d="M158.94,760.72c-.08-3.93-.12-7.62-.12-11.22,0-14.58.53-29.31,1.6-43.83L706.67,159.42c14.52-1.07,29.25-1.6,43.83-1.6,3.6,0,7.29,0,11.22.12Z" transform="translate(-29 -28)"/><path class="cls-2" d="M749.77,162.82l-585.95,586c0-13.6.5-27.34,1.45-40.89L708.89,164.27c13.55-1,27.28-1.44,40.88-1.45m.73-10q-23.25,0-46,1.75L155.57,703.45q-1.74,22.78-1.75,46c0,7.68.19,15.32.48,22.94L773.44,153.3c-7.62-.29-15.26-.48-22.94-.48Z" transform="translate(-29 -28)"/><path class="cls-1" d="M161.76,690.19a594.62,594.62,0,0,1,9.64-62.48L628.71,170.4a594.62,594.62,0,0,1,62.48-9.64Z" transform="translate(-29 -28)"/><path class="cls-2" d="M677.55,167.32,168.32,676.55c1.94-15.52,4.5-31,7.67-46.36L631.19,175c15.34-3.17,30.84-5.73,46.36-7.67m26.9-12.75a596.7,596.7,0,0,0-78.22,11.24L166.81,625.23a596.7,596.7,0,0,0-11.24,78.22L704.45,154.57Z" transform="translate(-29 -28)"/><path class="cls-1" d="M188,933.37c-4.37-13.41-8.31-27.18-11.75-41.08L893.29,175.21c13.9,3.44,27.67,7.38,41.08,11.75Z" transform="translate(-29 -28)"/><path class="cls-2" d="M894.83,180.75c10.17,2.57,20.27,5.41,30.19,8.49L190.24,924c-3.08-9.92-5.92-20-8.49-30.19L894.83,180.75m-3.08-11.07L170.68,890.75q6.4,26.4,15.1,51.87L943.62,184.78q-25.44-8.68-51.87-15.1Z" transform="translate(-29 -28)"/><path class="cls-1" d="M723.65,1340.54c-16.26-.73-32.58-2.13-48.66-4.17L1337.37,674c2,16.08,3.44,32.4,4.17,48.66Z" transform="translate(-29 -28)"/><path class="cls-2" d="M1333.61,684.82c1.31,11.89,2.25,23.89,2.83,35.86L721.68,1335.44c-12-.58-24-1.52-35.86-2.83l647.79-647.79m7.35-21.5L664.32,1340a600.54,600.54,0,0,0,61.31,5.66l621-621a597.72,597.72,0,0,0-5.67-61.31Z" transform="translate(-29 -28)"/><path class="cls-1" d="M381.27,1211.86c-9.72-7.78-19.4-16.06-28.88-24.69l835.78-835.78c8.63,9.48,16.91,19.16,24.69,28.88Z" transform="translate(-29 -28)"/><path class="cls-2" d="M1188,358.64c6.28,7,12.36,14.13,18.17,21.28L380.92,1205.15c-7.15-5.81-14.26-11.89-21.28-18.17L1188,358.64m.34-14.48L345.16,1187.32q17.63,16.32,36.5,31.23l837.89-837.89q-14.88-18.89-31.23-36.5Z" transform="translate(-29 -28)"/><path class="cls-1" d="M750.5,1341.18c-4.22,0-8.58,0-13.18-.17L1342,736.32c.12,4.61.17,9,.17,13.18,0,13.69-.49,27.71-1.46,41.7L792.2,1339.72C778.21,1340.69,764.19,1341.18,750.5,1341.18Z" transform="translate(-29 -28)"/><path class="cls-2" d="M1337.18,748.22v1.28c0,13-.44,26.24-1.33,39.49L790,1334.85c-13.25.89-26.52,1.33-39.49,1.33h-1.28l588-588m9.45-23.59-621,621c8.25.34,16.54.55,24.87.55q22.15,0,43.91-1.61l551.16-551.16q1.59-21.75,1.61-43.91c0-8.33-.21-16.62-.55-24.87Z" transform="translate(-29 -28)"/><path class="cls-1" d="M1339.44,806.61a593.35,593.35,0,0,1-9.29,62.13L869.74,1329.15a593.55,593.55,0,0,1-62.12,9.29Z" transform="translate(-29 -28)"/><path class="cls-2" d="M1333,820.18c-1.87,15.49-4.34,30.91-7.4,46.09L867.27,1324.55c-15.18,3.06-30.6,5.53-46.09,7.4L1333,820.18m12.62-26.77L794.41,1344.57a595.81,595.81,0,0,0,77.8-10.83l462.53-462.53a595.81,595.81,0,0,0,10.83-77.8Z" transform="translate(-29 -28)"/><path class="cls-1" d="M1291.66,989.08a590.51,590.51,0,0,1-88.12,141l-72.5,72.5a590.51,590.51,0,0,1-141,88.12Z" transform="translate(-29 -28)"/><path class="cls-2" d="M1274.82,1013a587.15,587.15,0,0,1-75,113.65l-72.21,72.21a586.85,586.85,0,0,1-113.65,75L1274.82,1013m31.23-45.37L968.63,1305.05a596.32,596.32,0,0,0,165.79-98.82l72.81-72.81a596.32,596.32,0,0,0,98.82-165.79Z" transform="translate(-29 -28)"/><path class="cls-1" d="M1207.23,1133.42l-72.81,72.81A600.4,600.4,0,0,0,1207.23,1133.42Z" transform="translate(-29 -28)"/><path class="cls-2" d="M1207.23,1133.42l-72.81,72.81a600.4,600.4,0,0,0,72.81-72.81Z" transform="translate(-29 -28)"/><path class="cls-1" d="M1326.13,886.9a589.46,589.46,0,0,1-24.36,77.93L965.83,1300.77a589.46,589.46,0,0,1-77.93,24.36Z" transform="translate(-29 -28)"/><path class="cls-2" d="M1316.8,903.3A582.89,582.89,0,0,1,1297.49,962L963,1296.49a582.89,582.89,0,0,1-58.74,19.31l412.5-412.5m17.94-32.09L872.21,1333.74a592.72,592.72,0,0,0,96.42-28.69l337.42-337.42a592.72,592.72,0,0,0,28.69-96.42Z" transform="translate(-29 -28)"/><path class="cls-1" d="M461.78,1266c-11.29-6.33-22.49-13.09-33.39-20.18l818.47-818.47c7.09,10.9,13.85,22.1,20.18,33.39Z" transform="translate(-29 -28)"/><path class="cls-2" d="M1246,435.31c5.14,8.09,10.09,16.33,14.81,24.62L460.93,1259.82c-8.3-4.72-16.53-9.67-24.62-14.81L1246,435.31m1.66-15.8L420.51,1246.67q20.5,13.62,42.14,25.58l810.6-810.6q-11.94-21.63-25.58-42.14Z" transform="translate(-29 -28)"/><path class="cls-1" d="M506.25,1288.55c-11.88-5.4-23.73-11.26-35.33-17.5l801.13-801.13c6.24,11.6,12.1,23.45,17.5,35.33Z" transform="translate(-29 -28)"/><path class="cls-2" d="M1270.8,478.24c4.48,8.56,8.74,17.23,12.76,25.93L505.18,1282.56c-8.71-4-17.39-8.28-25.94-12.76L1270.8,478.24m2.45-16.59-810.6,810.6q21.81,12,44.7,22.28l788.18-788.18q-10.23-22.87-22.28-44.7Z" transform="translate(-29 -28)"/><path class="cls-1" d="M419.88,1240.23c-10.55-7.13-20.84-14.55-30.69-22.15l829.89-829.89c7.6,9.85,15,20.14,22.15,30.69Z" transform="translate(-29 -28)"/><path class="cls-2" d="M1218.58,395.77c5.51,7.3,10.93,14.83,16.18,22.5L419.27,1233.76q-11.52-7.87-22.5-16.18l821.81-821.81m1-15.11L381.66,1218.55q18.82,14.82,38.85,28.12l827.16-827.16q-13.31-20-28.12-38.85Z" transform="translate(-29 -28)"/><path class="cls-1" d="M554.58,1307.94c-13-4.56-25.91-9.6-38.52-15l777.83-777.83c5.45,12.61,10.49,25.52,15,38.52Z" transform="translate(-29 -28)"/><path class="cls-2" d="M1292.18,523.83c3.91,9.37,7.58,18.88,11,28.44L553.27,1302.18c-9.56-3.42-19.07-7.09-28.44-11l767.35-767.35m3.35-17.48L507.35,1294.53q23.74,10.6,48.55,19.17l758.8-758.8q-8.55-24.79-19.17-48.55Z" transform="translate(-29 -28)"/><path class="cls-1" d="M606.1,1323.39c-13.8-3.46-27.54-7.44-41-11.86l747.4-747.4c4.42,13.43,8.4,27.17,11.86,41Z" transform="translate(-29 -28)"/><path class="cls-2" d="M1310.28,573.46c3.11,9.93,6,20,8.57,30.12L604.58,1317.85c-10.12-2.59-20.19-5.46-30.12-8.57l735.82-735.82m4.42-18.56L555.9,1313.7q25.36,8.74,51.74,15.23l722.29-722.29q-6.48-26.34-15.23-51.74Z" transform="translate(-29 -28)"/><path class="cls-1" d="M662.56,1334.65c-15.06-2.24-30.16-5.1-45-8.52l709.62-709.62c3.42,14.89,6.28,30,8.52,45Z" transform="translate(-29 -28)"/><path class="cls-2" d="M1324.22,626.49c2.36,11,4.4,22.2,6.11,33.32L660.81,1329.33c-11.12-1.71-22.27-3.75-33.32-6.11l696.73-696.73m5.71-19.85L607.64,1328.93q27.86,6.84,56.68,11L1341,663.32q-4.15-28.8-11-56.68Z" transform="translate(-29 -28)"/><path class="cls-1" d="M229.24,1027.79c-6.16-11.55-12-23.42-17.41-35.43L994.36,209.83c12,5.42,23.88,11.25,35.43,17.41Z" transform="translate(-29 -28)"/><path class="cls-2" d="M995.45,215.82c8.77,4,17.47,8.26,26,12.68l-790.95,791c-4.42-8.53-8.66-17.23-12.68-26L995.45,215.82m-2.19-12-787.4,787.4q10.19,22.92,22.17,44.8l810-810q-21.85-12-44.8-22.17Z" transform="translate(-29 -28)"/><path class="cls-1" d="M207.51,982.54c-5.46-12.74-10.49-25.68-15-38.59L946,190.53c12.91,4.49,25.85,9.52,38.59,15Z" transform="translate(-29 -28)"/><path class="cls-2" d="M947.26,196.29c9.52,3.37,19,7,28.49,10.94L209.23,973.75c-3.91-9.44-7.57-19-10.94-28.49l749-749m-2.64-11.51L186.78,942.62q8.49,24.84,19.08,48.64l787.4-787.4q-23.79-10.56-48.64-19.08Z" transform="translate(-29 -28)"/><path class="cls-1" d="M174.5,880.86c-3.38-14.9-6.2-30.05-8.41-45.17l671.6-671.6c15.12,2.21,30.27,5,45.17,8.41Z" transform="translate(-29 -28)"/><path class="cls-2" d="M839.44,169.41c11.17,1.68,22.35,3.69,33.42,6L177.43,870.86c-2.33-11.07-4.34-22.25-6-33.42l668-668m-3.52-10.62L160.79,833.92q4.1,28.88,10.89,56.83L892.75,169.68q-27.93-6.78-56.83-10.89Z" transform="translate(-29 -28)"/><path class="cls-1" d="M346,1180.37c-9.06-8.53-17.91-17.4-26.38-26.44l836.27-836.27c9,8.47,17.9,17.32,26.44,26.38Z" transform="translate(-29 -28)"/><path class="cls-2" d="M1156,324.63q9.88,9.4,19.37,19.32L346,1173.39q-9.88-9.47-19.32-19.37L1156,324.63m-.22-13.92L312.71,1153.8q16.07,17.42,33.45,33.52l843.16-843.16q-16.1-17.37-33.52-33.45Z" transform="translate(-29 -28)"/><path class="cls-1" d="M312.87,1146.57c-8.57-9.47-16.83-19.18-24.62-29l831.36-831.36c9.78,7.79,19.49,16,29,24.62Z" transform="translate(-29 -28)"/><path class="cls-2" d="M1120,293c7.18,5.81,14.31,11.86,21.32,18.11L313.07,1139.3c-6.25-7-12.3-14.14-18.11-21.32l825-825m-.76-13.39L281.57,1117.22q14.83,18.93,31.14,36.58L1155.8,310.71q-17.65-16.27-36.58-31.14Z" transform="translate(-29 -28)"/><path class="cls-1" d="M254.35,1070.39c-7.1-11-13.85-22.2-20.12-33.45l804.71-804.71c11.25,6.27,22.47,13,33.45,20.12Z" transform="translate(-29 -28)"/><path class="cls-2" d="M1039.79,238.45c8.28,4.68,16.53,9.62,24.67,14.77L255.22,1062.46c-5.15-8.14-10.09-16.39-14.77-24.67l799.34-799.34M1038.06,226l-810,810q11.9,21.68,25.51,42.22l826.74-826.74Q1059.74,238,1038.06,226Z" transform="translate(-29 -28)"/><path class="cls-1" d="M282.05,1109.67c-7.57-9.86-15-20.17-22.08-30.75l821-820.95c10.58,7.11,20.89,14.51,30.75,22.08Z" transform="translate(-29 -28)"/><path class="cls-2" d="M1081.53,264.43c7.7,5.24,15.25,10.64,22.56,16.13L282.56,1102.09c-5.49-7.32-10.89-14.86-16.13-22.56l815.1-815.1m-1.25-12.89L253.54,1078.28q13.26,20,28,38.94l837.65-837.65q-18.87-14.79-38.94-28Z" transform="translate(-29 -28)"/><path class="cls-1" d="M164.41,823.23c-2-16.15-3.35-32.51-4-48.81l616-616c16.3.68,32.66,2,48.81,4Z" transform="translate(-29 -28)"/><path class="cls-2" d="M778.41,163.47c12,.54,24,1.46,36,2.72L168.19,812.37c-1.26-11.94-2.18-24-2.72-36L778.41,163.47m-4-10.17L155.3,772.44a598.24,598.24,0,0,0,5.49,61.48L835.92,158.79a598.24,598.24,0,0,0-61.48-5.49Z" transform="translate(-29 -28)"/><path class="cls-1" d="M212,506.26a590.33,590.33,0,0,1,99.74-152.58l43.95-43.95A590.16,590.16,0,0,1,508.26,210Z" transform="translate(-29 -28)"/><path class="cls-2" d="M483.92,227.26,229.26,481.92a586.17,586.17,0,0,1,86.1-124.79l43.77-43.77a586.17,586.17,0,0,1,124.79-86.1M530,195.31A596.88,596.88,0,0,0,352.24,306.1L308.1,350.24A596.88,596.88,0,0,0,197.31,528L530,195.31Z" transform="translate(-29 -28)"/><path class="cls-1" d="M308.1,350.24l44.14-44.14A600.7,600.7,0,0,0,308.1,350.24Z" transform="translate(-29 -28)"/><path class="cls-2" d="M352.24,306.1a600.7,600.7,0,0,0-44.14,44.14l44.14-44.14Z" transform="translate(-29 -28)"/><path class="cls-1" d="M176.53,609.44a589.6,589.6,0,0,1,25-78.62L532.82,199.57a589.6,589.6,0,0,1,78.62-25Z" transform="translate(-29 -28)"/><path class="cls-2" d="M594.91,184,186,592.91a580.66,580.66,0,0,1,19.86-59.28L535.63,203.84A580.66,580.66,0,0,1,594.91,184m32.32-18.17A592.74,592.74,0,0,0,530,195.31L197.31,528a592.74,592.74,0,0,0-29.5,97.22L627.23,165.81Z" transform="translate(-29 -28)"/><path class="cls-1" d="M159.94,760.72c-.08-3.93-.12-7.62-.12-11.22,0-14.58.53-29.31,1.6-43.83L707.67,159.42c14.52-1.07,29.25-1.6,43.83-1.6,3.6,0,7.29,0,11.22.12Z" transform="translate(-29 -28)"/><path class="cls-2" d="M750.77,162.82l-585.95,586c0-13.6.5-27.34,1.45-40.89L709.89,164.27c13.55-1,27.28-1.44,40.88-1.45m.73-10q-23.25,0-46,1.75L156.57,703.45q-1.74,22.78-1.75,46c0,7.68.19,15.32.48,22.94L774.44,153.3c-7.62-.29-15.26-.48-22.94-.48Z" transform="translate(-29 -28)"/><path class="cls-1" d="M162.76,690.19a594.62,594.62,0,0,1,9.64-62.48L629.71,170.4a594.62,594.62,0,0,1,62.48-9.64Z" transform="translate(-29 -28)"/><path class="cls-2" d="M678.55,167.32,169.32,676.55c1.94-15.52,4.5-31,7.67-46.36L632.19,175c15.34-3.17,30.84-5.73,46.36-7.67m26.9-12.75a596.7,596.7,0,0,0-78.22,11.24L167.81,625.23a596.7,596.7,0,0,0-11.24,78.22L705.45,154.57Z" transform="translate(-29 -28)"/><path class="cls-1" d="M189,933.37c-4.37-13.41-8.31-27.18-11.75-41.08L894.29,175.21c13.9,3.44,27.67,7.38,41.08,11.75Z" transform="translate(-29 -28)"/><path class="cls-2" d="M895.83,180.75c10.17,2.57,20.27,5.41,30.19,8.49L191.24,924c-3.08-9.92-5.92-20-8.49-30.19L895.83,180.75m-3.08-11.07L171.68,890.75q6.4,26.4,15.1,51.87L944.62,184.78q-25.44-8.68-51.87-15.1Z" transform="translate(-29 -28)"/><path class="cls-1" d="M724.65,1340.54c-16.26-.73-32.57-2.13-48.66-4.17L1338.37,674c2,16.08,3.44,32.4,4.17,48.66Z" transform="translate(-29 -28)"/><path class="cls-2" d="M1334.61,684.82c1.31,11.89,2.25,23.89,2.83,35.86L722.68,1335.44c-12-.58-24-1.52-35.86-2.83l647.79-647.79m7.35-21.5L665.32,1340a600.54,600.54,0,0,0,61.31,5.66l621-621a597.72,597.72,0,0,0-5.67-61.31Z" transform="translate(-29 -28)"/><path class="cls-1" d="M382.27,1211.86c-9.72-7.78-19.4-16.06-28.88-24.69l835.78-835.78c8.63,9.48,16.91,19.16,24.69,28.88Z" transform="translate(-29 -28)"/><path class="cls-2" d="M1189,358.64c6.28,7,12.36,14.13,18.17,21.28L381.92,1205.15c-7.15-5.81-14.26-11.89-21.28-18.17L1189,358.64m.34-14.48L346.16,1187.32q17.63,16.32,36.5,31.23l837.89-837.89q-14.88-18.89-31.23-36.5Z" transform="translate(-29 -28)"/><path class="cls-1" d="M751.5,1341.18c-4.21,0-8.58,0-13.18-.17L1343,736.32c.12,4.61.17,9,.17,13.18,0,13.69-.49,27.71-1.46,41.7L793.2,1339.72C779.21,1340.69,765.19,1341.18,751.5,1341.18Z" transform="translate(-29 -28)"/><path class="cls-2" d="M1338.18,748.22v1.28c0,13-.44,26.24-1.33,39.49L791,1334.85c-13.25.89-26.52,1.33-39.49,1.33h-1.28l588-588m9.45-23.59-621,621c8.25.34,16.54.55,24.87.55q22.15,0,43.91-1.61l551.16-551.16q1.59-21.75,1.61-43.91c0-8.33-.21-16.62-.55-24.87Z" transform="translate(-29 -28)"/><path class="cls-1" d="M1340.44,806.61a593.35,593.35,0,0,1-9.29,62.13L870.74,1329.15a593.55,593.55,0,0,1-62.12,9.29Z" transform="translate(-29 -28)"/><path class="cls-2" d="M1334,820.18c-1.87,15.49-4.34,30.91-7.4,46.09L868.27,1324.55c-15.18,3.06-30.6,5.53-46.09,7.4L1334,820.18m12.62-26.77L795.41,1344.57a595.81,595.81,0,0,0,77.8-10.83l462.53-462.53a595.81,595.81,0,0,0,10.83-77.8Z" transform="translate(-29 -28)"/><path class="cls-1" d="M1292.66,989.08a590.51,590.51,0,0,1-88.12,141l-72.5,72.5a590.51,590.51,0,0,1-141,88.12Z" transform="translate(-29 -28)"/><path class="cls-2" d="M1275.82,1013a587.15,587.15,0,0,1-75,113.65l-72.21,72.21a586.85,586.85,0,0,1-113.65,75L1275.82,1013m31.23-45.37L969.63,1305.05a596.32,596.32,0,0,0,165.79-98.82l72.81-72.81a596.32,596.32,0,0,0,98.82-165.79Z" transform="translate(-29 -28)"/><path class="cls-1" d="M1208.23,1133.42l-72.81,72.81A600.4,600.4,0,0,0,1208.23,1133.42Z" transform="translate(-29 -28)"/><path class="cls-2" d="M1208.23,1133.42l-72.81,72.81a600.4,600.4,0,0,0,72.81-72.81Z" transform="translate(-29 -28)"/><path class="cls-1" d="M1327.13,886.9a588,588,0,0,1-24.36,77.93L966.83,1300.77a589.46,589.46,0,0,1-77.93,24.36Z" transform="translate(-29 -28)"/><path class="cls-2" d="M1317.8,903.3A582.89,582.89,0,0,1,1298.49,962L964,1296.49a582.89,582.89,0,0,1-58.74,19.31l412.5-412.5m17.94-32.09L873.21,1333.74a592.72,592.72,0,0,0,96.42-28.69l337.42-337.42a592.72,592.72,0,0,0,28.69-96.42Z" transform="translate(-29 -28)"/><path class="cls-1" d="M462.78,1266c-11.3-6.33-22.5-13.1-33.39-20.18l818.47-818.47c7.09,10.9,13.85,22.09,20.18,33.39Z" transform="translate(-29 -28)"/><path class="cls-2" d="M1247,435.31c5.14,8.09,10.09,16.33,14.81,24.62L461.93,1259.82c-8.3-4.72-16.53-9.67-24.62-14.81L1247,435.31m1.66-15.8L421.51,1246.67q20.5,13.62,42.14,25.58l810.6-810.6q-11.94-21.63-25.58-42.14Z" transform="translate(-29 -28)"/><path class="cls-1" d="M507.25,1288.55c-11.88-5.4-23.73-11.26-35.33-17.5l801.13-801.13c6.24,11.6,12.1,23.45,17.5,35.33Z" transform="translate(-29 -28)"/><path class="cls-2" d="M1271.8,478.24c4.48,8.56,8.74,17.23,12.76,25.93L506.17,1282.56c-8.7-4-17.38-8.28-25.93-12.76L1271.8,478.24m2.45-16.59-810.6,810.6q21.81,12,44.7,22.28l788.18-788.18q-10.23-22.87-22.28-44.7Z" transform="translate(-29 -28)"/><path class="cls-1" d="M420.88,1240.23c-10.55-7.13-20.84-14.55-30.69-22.15l829.89-829.89c7.6,9.85,15,20.14,22.15,30.69Z" transform="translate(-29 -28)"/><path class="cls-2" d="M1219.58,395.77c5.51,7.3,10.93,14.82,16.18,22.5L420.27,1233.76c-7.67-5.25-15.2-10.67-22.5-16.18l821.81-821.81m1-15.11L382.66,1218.55q18.82,14.82,38.85,28.12l827.16-827.16q-13.31-20-28.12-38.85Z" transform="translate(-29 -28)"/><path class="cls-1" d="M555.58,1307.94c-13-4.56-25.91-9.6-38.52-15l777.83-777.83c5.45,12.61,10.49,25.53,15,38.52Z" transform="translate(-29 -28)"/><path class="cls-2" d="M1293.18,523.83c3.91,9.37,7.58,18.88,11,28.44L554.27,1302.18c-9.56-3.42-19.07-7.09-28.44-11l767.35-767.35m3.35-17.48L508.35,1294.53q23.74,10.6,48.55,19.17l758.8-758.8q-8.55-24.79-19.17-48.55Z" transform="translate(-29 -28)"/><path class="cls-1" d="M607.1,1323.39c-13.8-3.46-27.54-7.44-41-11.86l747.4-747.4c4.42,13.43,8.4,27.17,11.86,41Z" transform="translate(-29 -28)"/><path class="cls-2" d="M1311.28,573.46c3.11,9.93,6,20,8.57,30.12L605.58,1317.85c-10.12-2.59-20.19-5.46-30.12-8.57l735.82-735.82m4.42-18.56L556.9,1313.7q25.36,8.74,51.74,15.23l722.29-722.29q-6.48-26.34-15.23-51.74Z" transform="translate(-29 -28)"/><path class="cls-1" d="M663.56,1334.65c-15.06-2.24-30.16-5.1-45-8.52l709.62-709.62c3.42,14.89,6.28,30,8.52,45Z" transform="translate(-29 -28)"/><path class="cls-2" d="M1325.22,626.49c2.36,11,4.4,22.2,6.11,33.32L661.81,1329.33c-11.12-1.71-22.27-3.75-33.32-6.11l696.73-696.73m5.71-19.85L608.64,1328.93q27.86,6.84,56.68,11L1342,663.32q-4.15-28.8-11-56.68Z" transform="translate(-29 -28)"/><polygon class="cls-3" points="841.28 568.34 1083.43 601.54 909.79 773.55 953.05 1014.1 735.8 902.11 520.38 1017.59 559.76 776.37 383.37 607.18 624.95 570.08 731.35 350.04 841.28 568.34"/></svg>