<svg id="Layer_1" data-name="Layer 1" xmlns="http://www.w3.org/2000/svg" viewBox="0 0 406.95 406.95"><defs><style>.cls-1{fill:#4abfb6;}</style></defs><title>colposcopia</title><path class="cls-1" d="M120.36,454A38.62,38.62,0,0,1,93,442.67L58.27,408a38.78,38.78,0,0,1,0-54.78l189-189a5.84,5.84,0,0,1,8.27,0l81.2,81.2a5.85,5.85,0,0,1,0,8.28l-189,189A38.62,38.62,0,0,1,120.36,454Zm131-277.38L66.54,361.47a27.06,27.06,0,0,0,0,38.23l34.7,34.7a27.08,27.08,0,0,0,38.24,0L324.33,249.55Z" transform="translate(-46.94 -47.05)"/><path class="cls-1" d="M332.6,255.4a5.88,5.88,0,0,1-4.14-1.71l-81.2-81.21a5.85,5.85,0,0,1,1.26-9.23l73.82-41.71a5.84,5.84,0,0,1,7,1l49.09,49.09a5.85,5.85,0,0,1,1,7l-41.71,73.83a5.82,5.82,0,0,1-4.3,2.91A5.25,5.25,0,0,1,332.6,255.4ZM261,169.65,331.29,240,367,176.72l-42.81-42.81Z" transform="translate(-46.94 -47.05)"/><path class="cls-1" d="M152.5,383.43a35,35,0,0,1-24.74-59.73L194.51,257A35,35,0,0,1,244,257h0a35,35,0,0,1,0,49.48l-66.75,66.76A34.8,34.8,0,0,1,152.5,383.43Zm66.75-125a23.14,23.14,0,0,0-16.47,6.82L136,332A23.29,23.29,0,1,0,169,364.91l66.75-66.75a23.29,23.29,0,0,0-16.47-39.76Z" transform="translate(-46.94 -47.05)"/><path class="cls-1" d="M219.58,328.42a5.83,5.83,0,0,1-4.13-1.71L174.24,285.5a5.85,5.85,0,1,1,8.27-8.28l41.21,41.21a5.85,5.85,0,0,1-4.14,10Z" transform="translate(-46.94 -47.05)"/><path class="cls-1" d="M193.38,354.63a5.85,5.85,0,0,1-4.14-1.72L148,311.7a5.85,5.85,0,0,1,8.27-8.27l41.21,41.21a5.86,5.86,0,0,1-4.13,10Z" transform="translate(-46.94 -47.05)"/><path class="cls-1" d="M374.31,181.58a5.86,5.86,0,0,1-4.14-1.72l-49.09-49.09a5.85,5.85,0,0,1,0-8.27L390.2,53.38a21.66,21.66,0,0,1,30.6,0l26.76,26.76a21.67,21.67,0,0,1,0,30.61l-69.12,69.11A5.82,5.82,0,0,1,374.31,181.58Zm-40.82-55,40.82,40.83,65-65a10,10,0,0,0,0-14.06L412.53,61.65a10,10,0,0,0-14.06,0Z" transform="translate(-46.94 -47.05)"/><path class="cls-1" d="M418.7,106.92a5.84,5.84,0,0,1-4.14-1.71L395.73,86.38A5.85,5.85,0,0,1,404,78.11l18.82,18.83a5.85,5.85,0,0,1-4.13,10Z" transform="translate(-46.94 -47.05)"/><path class="cls-1" d="M399.32,126.3a5.84,5.84,0,0,1-4.14-1.71l-18.82-18.83a5.85,5.85,0,0,1,8.27-8.27l18.82,18.83a5.85,5.85,0,0,1-4.13,10Z" transform="translate(-46.94 -47.05)"/><path class="cls-1" d="M379.94,145.68A5.84,5.84,0,0,1,375.8,144L357,125.14a5.85,5.85,0,1,1,8.27-8.27l18.82,18.82a5.85,5.85,0,0,1-4.13,10Z" transform="translate(-46.94 -47.05)"/></svg>