<svg id="Layer_1" data-name="Layer 1" xmlns="http://www.w3.org/2000/svg" viewBox="0 0 448.67 320.02"><defs><style>.cls-1{fill:#4abfb6;}</style></defs><title>ginecologia</title><path class="cls-1" d="M251.22,159.74c-25.74,0-52-5-78.59-15a6,6,0,0,1,4.19-11.14c50.34,18.93,99.3,19,145.53.07a5.95,5.95,0,1,1,4.5,11A198.43,198.43,0,0,1,251.22,159.74Z" transform="translate(-25.33 -91.14)"/><path class="cls-1" d="M249.67,283.94a5.95,5.95,0,0,1-2.57-11.32c7.72-3.7,19.32-25.23,23.86-44.32.66-2.75,1.33-5.93,2.12-9.61,4.61-21.57,11.58-54.16,29.94-77.34a6,6,0,0,1,9.33,7.39c-16.63,21-23.25,51.95-27.63,72.44-.77,3.6-1.49,7-2.18,9.88-4.1,17.2-16.56,45.72-30.31,52.29A5.87,5.87,0,0,1,249.67,283.94Z" transform="translate(-25.33 -91.14)"/><path class="cls-1" d="M249.66,283.94a5.84,5.84,0,0,1-2.56-.59c-13.75-6.57-26.22-35.09-30.31-52.29-.69-2.89-1.42-6.28-2.18-9.88-4.39-20.49-11-51.45-27.63-72.44a6,6,0,0,1,9.33-7.39c18.35,23.18,25.32,55.77,29.94,77.34.78,3.68,1.46,6.86,2.12,9.61,4.54,19.09,16.14,40.62,23.86,44.32a6,6,0,0,1-2.57,11.32Z" transform="translate(-25.33 -91.14)"/><path class="cls-1" d="M386,226.31a49.75,49.75,0,0,1-10.9-1.17c-11.16-2.5-19.17-8.72-22.56-17.52s-1.65-18.78,4.92-28.13c6.06-8.63,15.66-15.8,27-20.2s23.3-5.53,33.58-3.22c11.16,2.5,19.17,8.72,22.57,17.52s1.64,18.78-4.93,28.13c-6.06,8.63-15.66,15.8-27,20.2A63.61,63.61,0,0,1,386,226.31Zm21.15-59.52a51.38,51.38,0,0,0-18.37,3.61c-17.86,6.9-29.37,22-25.14,32.93,1.92,5,6.91,8.59,14.06,10.2,8,1.8,17.5.84,26.7-2.72,17.86-6.9,29.37-22,25.14-32.93h0c-1.92-5-6.91-8.59-14.06-10.2A38.25,38.25,0,0,0,407.18,166.79Z" transform="translate(-25.33 -91.14)"/><circle class="cls-1" cx="378.06" cy="87.67" r="4.08"/><path class="cls-1" d="M379.69,193.92a4.08,4.08,0,1,0,4.08,4.08A4.08,4.08,0,0,0,379.69,193.92Z" transform="translate(-25.33 -91.14)"/><path class="cls-1" d="M385.56,178.82a4.08,4.08,0,1,0,4.08,4.08A4.07,4.07,0,0,0,385.56,178.82Z" transform="translate(-25.33 -91.14)"/><path class="cls-1" d="M396.62,198a4.09,4.09,0,1,0,4.08,4.08A4.08,4.08,0,0,0,396.62,198Z" transform="translate(-25.33 -91.14)"/><path class="cls-1" d="M412.87,182.9A4.08,4.08,0,1,0,417,187,4.08,4.08,0,0,0,412.87,182.9Z" transform="translate(-25.33 -91.14)"/><path class="cls-1" d="M113.3,226.31a63.66,63.66,0,0,1-22.69-4.39c-11.37-4.4-21-11.57-27-20.2-6.57-9.35-8.32-19.34-4.92-28.13h0c3.4-8.8,11.41-15,22.56-17.52,10.29-2.31,22.22-1.17,33.59,3.22s21,11.57,27,20.2c6.57,9.35,8.32,19.34,4.92,28.13s-11.41,15-22.56,17.52A49.81,49.81,0,0,1,113.3,226.31ZM92.14,166.79a38.16,38.16,0,0,0-8.32.89c-7.15,1.61-12.15,5.23-14.07,10.2h0c-4.23,11,7.29,26,25.15,32.93,9.2,3.56,18.68,4.52,26.69,2.72,7.15-1.61,12.15-5.23,14.07-10.2,4.23-11-7.29-26-25.15-32.93A51.34,51.34,0,0,0,92.14,166.79ZM64.2,175.73h0Z" transform="translate(-25.33 -91.14)"/><path class="cls-1" d="M285.73,411.17a6,6,0,0,1-5.78-4.55c-3.84-15.85-2.32-66.32-.32-113.6.25-5.92.45-10.59.45-11.84a5.93,5.93,0,0,1,1.6-4.05A158.16,158.16,0,0,0,324.2,169c0-4.55-.2-9.19-.6-13.8a6,6,0,0,1,1.53-4.53A180.18,180.18,0,0,1,348.79,129c1.38-1,2.32-1.33,14.37-4.47,9.65-2.52,22.86-6,30.59-8.78,17-6.18,34.58-12.58,47.15-6.55,6.75,3.24,11.72,9.8,15.2,20s3,18.94-1.5,26.58c-3.51,6-9.28,10.86-15.22,15a25.58,25.58,0,0,1,1.3,2.81c.07.2.15.4.22.61,14.28-9.69,26.68-22.56,18.68-46.14-3.76-11.07-9.51-18.53-17.1-22.17-14-6.69-32.27,0-50,6.41-9.86,3.59-17.31,5.1-26.75,7-2.66.55-5.41,1.11-8.44,1.76-.34.07-38.49,7.47-59.11,7.9a6.06,6.06,0,0,1-2.69-.58,106.64,106.64,0,0,0-91.7,0,6,6,0,0,1-2.69.58c-16.69-.34-44.77-5.36-55.34-7.25l-3.21-.56c-11.16-1.2-22.19-3.94-35.74-8.87-17.72-6.44-36-13.1-50-6.41-7.58,3.64-13.33,11.1-17.09,22.17-8,23.58,4.39,36.45,18.67,46.14.08-.21.15-.41.23-.61a24.55,24.55,0,0,1,1.29-2.81c-5.93-4.1-11.71-9-15.22-15-4.48-7.64-5-16.33-1.49-26.58s8.45-16.8,15.2-20c12.56-6,30.14.37,47.14,6.55,7.73,2.82,21,6.26,30.59,8.78,12.05,3.14,13,3.43,14.38,4.47a180.12,180.12,0,0,1,23.65,21.69,6,6,0,0,1,1.54,4.53c-.4,4.61-.6,9.25-.6,13.8a158.16,158.16,0,0,0,42.52,108.11,6,6,0,0,1,1.59,4.05c0,1.25.2,5.92.45,11.84,2,47.28,3.53,97.75-.31,113.6a6,6,0,1,1-11.57-2.81c4-16.35,1.08-84.59,0-110.28-.19-4.5-.33-7.81-.4-10A170,170,0,0,1,163.22,169c0-4,.15-8.1.44-12.18A169.16,169.16,0,0,0,144,139c-1.67-.54-6.51-1.8-10.83-2.93-9.88-2.57-23.4-6.1-31.66-9.1-14-5.1-29.87-10.87-37.92-7-3.72,1.79-6.69,6.08-9.08,13.14-4.43,13.05-.6,20,17.09,31.11a6,6,0,0,1,1.1,9.19,13,13,0,0,0-3.79,9.93,5.94,5.94,0,0,1-7.06,6.09,13.78,13.78,0,0,1-4.71-1.84c-12.37-7.74-41.36-25.88-28.65-63.32,4.82-14.21,12.63-24,23.21-29.07,18.47-8.86,39.18-1.33,59.21,6,12.64,4.6,22.82,7.13,33,8.22.48,0,1.22.19,4,.68,9.07,1.62,36.14,6.45,52.13,7a118.6,118.6,0,0,1,99.33,0c19.77-.69,55.15-7.53,55.47-7.6,3.1-.66,5.89-1.23,8.58-1.78,8.95-1.82,16-3.26,25.05-6.54,20-7.29,40.73-14.82,59.2-6,10.58,5.08,18.39,14.86,23.22,29.08,12.7,37.43-16.28,55.57-28.66,63.31a13.73,13.73,0,0,1-4.7,1.84,6,6,0,0,1-7.07-6.09,13,13,0,0,0-3.78-9.93,5.94,5.94,0,0,1,1.1-9.19c17.69-11.09,21.52-18.06,17.09-31.11-2.4-7.06-5.37-11.35-9.08-13.14-8.05-3.86-23.92,1.91-37.93,7-8.25,3-21.78,6.53-31.65,9.1-4.32,1.13-9.16,2.39-10.84,2.93a169.09,169.09,0,0,0-19.66,17.87c.29,4.08.43,8.16.43,12.18a170,170,0,0,1-44.17,114.55c-.08,2.15-.22,5.46-.41,10-1.08,25.69-4,93.93,0,110.28a6,6,0,0,1-4.38,7.19A6.31,6.31,0,0,1,285.73,411.17Z" transform="translate(-25.33 -91.14)"/><path class="cls-1" d="M95.94,174.73a4.09,4.09,0,1,1-4.09,4.09A4.09,4.09,0,0,1,95.94,174.73Z" transform="translate(-25.33 -91.14)"/><path class="cls-1" d="M119.64,193.92a4.08,4.08,0,1,1-4.09,4.08A4.08,4.08,0,0,1,119.64,193.92Z" transform="translate(-25.33 -91.14)"/><path class="cls-1" d="M113.77,178.82a4.08,4.08,0,1,1-4.09,4.08A4.08,4.08,0,0,1,113.77,178.82Z" transform="translate(-25.33 -91.14)"/><path class="cls-1" d="M102.71,198a4.09,4.09,0,1,1-4.09,4.08A4.08,4.08,0,0,1,102.71,198Z" transform="translate(-25.33 -91.14)"/><path class="cls-1" d="M86.45,182.9A4.08,4.08,0,1,1,82.37,187,4.09,4.09,0,0,1,86.45,182.9Z" transform="translate(-25.33 -91.14)"/><path class="cls-1" d="M249.66,309a6,6,0,0,1-5.95-6V278a5.95,5.95,0,1,1,11.9,0v25.11A6,6,0,0,1,249.66,309Z" transform="translate(-25.33 -91.14)"/><path class="cls-1" d="M249.66,338.38a6,6,0,0,1-5.95-5.95v-9.76a6,6,0,0,1,11.9,0v9.76A6,6,0,0,1,249.66,338.38Z" transform="translate(-25.33 -91.14)"/></svg>