<svg id="Layer_1" data-name="Layer 1" xmlns="http://www.w3.org/2000/svg" viewBox="0 0 466 263"><defs><style>.cls-1{fill:#4abfb6;}</style></defs><title>Infertilidad</title><path class="cls-1" d="M351.5,381.5A130.86,130.86,0,0,1,278,359a6.18,6.18,0,1,1,6.92-10.25,119.14,119.14,0,1,0,66.6-217.92A119.87,119.87,0,0,0,244.14,198.3,6.19,6.19,0,0,1,233,192.92,131.52,131.52,0,0,1,351.5,118.5C424,118.5,483,177.49,483,250S424,381.5,351.5,381.5Z" transform="translate(-17 -118.5)"/><path class="cls-1" d="M351.5,344.58a93.7,93.7,0,0,1-41.25-9.44,6.18,6.18,0,1,1,5.4-11.12A82.23,82.23,0,1,0,351.5,167.78a82.43,82.43,0,0,0-67.23,34.87,6.18,6.18,0,1,1-10.1-7.13A94.59,94.59,0,1,1,351.5,344.58Z" transform="translate(-17 -118.5)"/><path class="cls-1" d="M257,289.3a25.51,25.51,0,0,1-12.37-3.15,26.84,26.84,0,0,1-12.82-16.35c-.08-.29-.16-.58-.23-.87a2.62,2.62,0,0,0-2.52-1.93h-8.56a15,15,0,0,1-15-15v-4a15,15,0,0,1,15-15h8.56a2.62,2.62,0,0,0,2.52-1.93c.07-.29.15-.58.23-.87a26.8,26.8,0,0,1,12.82-16.35A26.43,26.43,0,0,1,265.32,212l39.76,12.21a27,27,0,0,1,0,51.64L265.32,288A28.16,28.16,0,0,1,257,289.3Zm-36.5-43.94a2.62,2.62,0,0,0-2.61,2.62v4a2.62,2.62,0,0,0,2.61,2.62h8.56a15,15,0,0,1,14.47,11.11c.06.26.13.51.2.77a14.43,14.43,0,0,0,6.85,8.8,14,14,0,0,0,11.08.89L301.45,264a14.64,14.64,0,0,0,0-28h0l-39.76-12.21a14,14,0,0,0-11.08.89,14.43,14.43,0,0,0-6.85,8.8c-.07.26-.14.51-.2.77a15,15,0,0,1-14.47,11.11Z" transform="translate(-17 -118.5)"/><path class="cls-1" d="M210.24,257.7c-13.51,0-20.54-4.54-26.73-8.54-5.45-3.52-10.16-6.56-20-6.56s-14.58,3-20,6.56c-6.2,4-13.22,8.54-26.73,8.54S96.18,253.16,90,249.16c-5.45-3.52-10.16-6.56-20-6.56s-14.58,3-20,6.56c-6.2,4-13.22,8.54-26.74,8.54a6.19,6.19,0,0,1,0-12.37c9.87,0,14.58-3,20-6.55,6.2-4,13.23-8.54,26.74-8.54s20.54,4.53,26.74,8.54c5.45,3.52,10.16,6.55,20,6.55s14.57-3,20-6.55c6.19-4,13.22-8.54,26.73-8.54s20.54,4.53,26.73,8.54c5.46,3.52,10.16,6.55,20,6.55a6.19,6.19,0,0,1,0,12.37Z" transform="translate(-17 -118.5)"/><path class="cls-1" d="M243.61,344.58a17.12,17.12,0,0,1-8.25-2.1A17.76,17.76,0,0,1,227,332h-3.87A11.13,11.13,0,0,1,212,320.92v-2.28a11.14,11.14,0,0,1,11.12-11.13H227a17.77,17.77,0,0,1,8.4-10.43,17.51,17.51,0,0,1,13.71-1.27l22.35,6.86a17.89,17.89,0,0,1,0,34.21l-22.35,6.87A18.8,18.8,0,0,1,243.61,344.58Zm-14.22-24.8a11.12,11.12,0,0,1,9.26,8.16l.11.41a5.41,5.41,0,0,0,2.54,3.29,5.2,5.2,0,0,0,4.14.29l22.36-6.86a5.54,5.54,0,0,0,0-10.58h0l-22.36-6.86a5.13,5.13,0,0,0-4.13.29,5.39,5.39,0,0,0-2.55,3.29l-.11.41A11.12,11.12,0,0,1,229.39,319.78Zm-2.68,11.35h0Zm0-22.7h0Z" transform="translate(-17 -118.5)"/><path class="cls-1" d="M217.31,326.81c-8.4,0-12.89-2.9-16.5-5.23-3-2-5-3.25-9.79-3.25s-6.76,1.29-9.8,3.25c-3.61,2.33-8.1,5.23-16.49,5.23s-12.89-2.9-16.5-5.23c-3-2-5-3.25-9.8-3.25s-6.76,1.29-9.79,3.25c-3.61,2.33-8.11,5.23-16.5,5.23a6.18,6.18,0,1,1,0-12.36c4.75,0,6.75-1.3,9.79-3.26,3.61-2.33,8.11-5.23,16.5-5.23s12.89,2.9,16.5,5.23c3,2,5,3.26,9.8,3.26s6.75-1.3,9.79-3.26c3.61-2.33,8.1-5.23,16.5-5.23s12.89,2.9,16.5,5.23c3,2,5,3.26,9.79,3.26a6.18,6.18,0,0,1,0,12.36Z" transform="translate(-17 -118.5)"/><path class="cls-1" d="M183.87,201.79a17,17,0,0,1-8.25-2.11,17.82,17.82,0,0,1-8.4-10.43h-3.87a11.14,11.14,0,0,1-11.12-11.13v-2.27a11.14,11.14,0,0,1,11.12-11.13h3.87a17.77,17.77,0,0,1,8.4-10.43A17.51,17.51,0,0,1,189.33,153l22.36,6.86h0a17.89,17.89,0,0,1,0,34.21L189.33,201A18.48,18.48,0,0,1,183.87,201.79ZM169.65,177a11.17,11.17,0,0,1,9.27,8.17l.1.39a5.43,5.43,0,0,0,2.55,3.31,5.13,5.13,0,0,0,4.13.28l22.36-6.86a5.53,5.53,0,0,0,0-10.57l-22.36-6.86a5.13,5.13,0,0,0-4.13.28,5.36,5.36,0,0,0-2.54,3.3l-.12.41A11.12,11.12,0,0,1,169.65,177ZM167,188.33h0Zm0-22.7h0Z" transform="translate(-17 -118.5)"/><path class="cls-1" d="M157.57,184c-8.4,0-12.89-2.9-16.5-5.23-3-2-5-3.26-9.79-3.26s-6.76,1.3-9.79,3.26c-3.61,2.33-8.11,5.23-16.5,5.23s-12.89-2.9-16.5-5.23c-3-2-5-3.26-9.8-3.26s-6.75,1.3-9.79,3.26c-3.61,2.33-8.11,5.23-16.5,5.23a6.18,6.18,0,1,1,0-12.36c4.75,0,6.76-1.3,9.79-3.26,3.61-2.33,8.11-5.23,16.5-5.23s12.89,2.9,16.5,5.23c3,2,5,3.26,9.8,3.26s6.75-1.3,9.79-3.26c3.61-2.33,8.1-5.23,16.5-5.23s12.89,2.9,16.5,5.23c3,2,5,3.26,9.79,3.26a6.18,6.18,0,0,1,0,12.36Z" transform="translate(-17 -118.5)"/><circle class="cls-1" cx="385.96" cy="122.56" r="9.07"/><circle class="cls-1" cx="349.67" cy="86.27" r="9.07"/><circle class="cls-1" cx="379.55" cy="170.96" r="9.07"/><circle class="cls-1" cx="338.95" cy="183.53" r="9.07"/></svg>