<svg id="location" xmlns="http://www.w3.org/2000/svg" viewBox="0 0 1443 1443"><defs><style>.cls-1,.cls-3{fill:#fff;}.cls-2{fill:#42c6ba;}.cls-3{stroke:#42c6ba;stroke-miterlimit:10;stroke-width:10px;}</style></defs><title>location</title><path class="cls-1" d="M750.42,1479.94A716.69,716.69,0,0,1,471.53,103.24a716.68,716.68,0,0,1,557.78,1320.39A712,712,0,0,1,750.42,1479.94Z" transform="translate(-28.92 -41.94)"/><path class="cls-2" d="M750.42,51.94a708.3,708.3,0,0,1,397.8,121.5A713.74,713.74,0,0,1,1406,486.49a710.56,710.56,0,0,1-65.6,674.75A713.59,713.59,0,0,1,1027.36,1419a710.51,710.51,0,0,1-674.74-65.6,713.59,713.59,0,0,1-257.79-313,710.51,710.51,0,0,1,65.6-674.74,713.45,713.45,0,0,1,313-257.79A707.06,707.06,0,0,1,750.42,51.94m0-10c-398.47,0-721.5,323-721.5,721.5s323,721.5,721.5,721.5,721.5-323,721.5-721.5-323-721.5-721.5-721.5Z" transform="translate(-28.92 -41.94)"/><path class="cls-1" d="M229.16,1041.72c-6.16-11.54-12-23.41-17.41-35.42L994.28,223.77c12,5.41,23.88,11.25,35.43,17.41Z" transform="translate(-28.92 -41.94)"/><path class="cls-2" d="M995.37,229.76c8.77,4,17.47,8.26,26,12.68l-790.95,791c-4.42-8.53-8.66-17.23-12.68-26L995.37,229.76m-2.19-12-787.4,787.4Q216,1028.12,228,1050l810-810q-21.86-12-44.8-22.17Z" transform="translate(-28.92 -41.94)"/><path class="cls-1" d="M207.43,996.48c-5.46-12.74-10.49-25.68-15-38.6L945.87,204.47c12.91,4.49,25.85,9.52,38.59,15Z" transform="translate(-28.92 -41.94)"/><path class="cls-2" d="M947.18,210.23c9.52,3.37,19.05,7,28.49,10.94L209.15,987.68c-3.91-9.43-7.57-19-10.94-28.49l749-749m-2.64-11.51L186.7,956.56q8.49,24.83,19.08,48.64l787.4-787.4q-23.79-10.56-48.64-19.08Z" transform="translate(-28.92 -41.94)"/><path class="cls-1" d="M174.42,894.8c-3.38-14.9-6.2-30-8.41-45.18L837.61,178c15.12,2.21,30.27,5,45.17,8.4Z" transform="translate(-28.92 -41.94)"/><path class="cls-2" d="M839.36,183.35c11.17,1.68,22.35,3.69,33.42,6L177.35,884.79c-2.33-11.06-4.34-22.24-6-33.41l668-668m-3.52-10.62L160.71,847.86q4.09,28.88,10.89,56.83L892.67,183.62q-27.93-6.78-56.83-10.89Z" transform="translate(-28.92 -41.94)"/><path class="cls-1" d="M346,1194.31c-9.06-8.54-17.91-17.4-26.38-26.45l836.27-836.27c9,8.48,17.9,17.33,26.44,26.39Z" transform="translate(-28.92 -41.94)"/><path class="cls-2" d="M1155.94,338.57c6.58,6.27,13.06,12.73,19.37,19.32L345.87,1187.33c-6.59-6.31-13.05-12.79-19.32-19.37l829.39-829.39m-.22-13.92L312.63,1167.74q16.06,17.41,33.45,33.52L1189.24,358.1q-16.1-17.37-33.52-33.45Z" transform="translate(-28.92 -41.94)"/><path class="cls-1" d="M312.79,1160.5c-8.57-9.46-16.83-19.17-24.62-29l831.36-831.36c9.78,7.79,19.49,16,29,24.62Z" transform="translate(-28.92 -41.94)"/><path class="cls-2" d="M1119.9,306.89c7.17,5.81,14.31,11.87,21.32,18.12L313,1153.24q-9.37-10.53-18.11-21.33l825-825m-.76-13.38L281.49,1131.16q14.83,18.91,31.14,36.58l843.09-843.09q-17.65-16.27-36.58-31.14Z" transform="translate(-28.92 -41.94)"/><path class="cls-1" d="M254.27,1084.33c-7.1-11-13.85-22.2-20.12-33.45l804.71-804.71c11.25,6.27,22.47,13,33.45,20.12Z" transform="translate(-28.92 -41.94)"/><path class="cls-2" d="M1039.71,252.38c8.28,4.69,16.53,9.63,24.67,14.77L255.14,1076.4c-5.15-8.14-10.09-16.39-14.77-24.67l799.34-799.35M1038,240,228,1050q11.9,21.68,25.51,42.22L1080.2,265.48Q1059.67,251.89,1038,240Z" transform="translate(-28.92 -41.94)"/><path class="cls-1" d="M282,1123.61c-7.57-9.86-15-20.17-22.08-30.76l820.94-820.94c10.59,7.1,20.9,14.51,30.76,22.07Z" transform="translate(-28.92 -41.94)"/><path class="cls-2" d="M1081.45,278.36c7.7,5.25,15.25,10.64,22.56,16.14L282.48,1116c-5.49-7.31-10.89-14.85-16.13-22.55l815.1-815.11m-1.25-12.88L253.46,1092.22q13.26,20,28,38.94l837.65-837.65q-18.87-14.79-38.94-28Z" transform="translate(-28.92 -41.94)"/><path class="cls-1" d="M164.33,837.16c-2-16.14-3.35-32.5-4-48.8l616-616c16.3.67,32.66,2,48.81,4Z" transform="translate(-28.92 -41.94)"/><path class="cls-2" d="M778.32,177.41c12,.54,24,1.45,36,2.72L168.11,826.31c-1.27-11.94-2.18-24-2.72-36L778.32,177.41m-4-10.17L155.22,786.37a598.18,598.18,0,0,0,5.49,61.49L835.84,172.73a598.24,598.24,0,0,0-61.48-5.49Z" transform="translate(-28.92 -41.94)"/><path class="cls-1" d="M211.91,520.2a590.16,590.16,0,0,1,99.74-152.58l44-43.95a590.33,590.33,0,0,1,152.58-99.74Z" transform="translate(-28.92 -41.94)"/><path class="cls-2" d="M483.84,241.2,229.18,495.85a585.86,585.86,0,0,1,86.1-124.78l43.77-43.77a585.81,585.81,0,0,1,124.79-86.1m46.09-32A596.91,596.91,0,0,0,352.16,320L308,364.18A596.68,596.68,0,0,0,197.23,542l332.7-332.71Z" transform="translate(-28.92 -41.94)"/><path class="cls-1" d="M308,364.18,352.16,320A600.7,600.7,0,0,0,308,364.18Z" transform="translate(-28.92 -41.94)"/><path class="cls-2" d="M352.16,320A600.7,600.7,0,0,0,308,364.18L352.16,320Z" transform="translate(-28.92 -41.94)"/><path class="cls-1" d="M176.45,623.38a589.6,589.6,0,0,1,25-78.62L532.74,213.51a588.14,588.14,0,0,1,78.62-25Z" transform="translate(-28.92 -41.94)"/><path class="cls-2" d="M594.83,197.92,185.9,606.85a583.06,583.06,0,0,1,19.85-59.28l329.8-329.8a583.06,583.06,0,0,1,59.28-19.85m32.32-18.17a593.69,593.69,0,0,0-97.22,29.49L197.23,542a592.34,592.34,0,0,0-29.5,97.21L627.15,179.75Z" transform="translate(-28.92 -41.94)"/><path class="cls-1" d="M159.86,774.66c-.08-3.95-.12-7.67-.12-11.22,0-14.59.53-29.32,1.6-43.83L707.59,173.35c14.52-1.06,29.25-1.6,43.83-1.6,3.6,0,7.29.05,11.22.13Z" transform="translate(-28.92 -41.94)"/><path class="cls-2" d="M750.69,176.75l-585.95,586c0-13.6.5-27.33,1.45-40.89L709.81,178.21c13.55-1,27.28-1.44,40.88-1.46m.73-10q-23.25,0-46.06,1.76L156.49,717.38q-1.74,22.8-1.75,46.06c0,7.68.19,15.32.48,22.93L774.36,167.24c-7.62-.29-15.26-.49-22.94-.49Z" transform="translate(-28.92 -41.94)"/><path class="cls-1" d="M162.68,704.12a594.84,594.84,0,0,1,9.64-62.47L629.63,184.34a594.84,594.84,0,0,1,62.47-9.64Z" transform="translate(-28.92 -41.94)"/><path class="cls-2" d="M678.47,181.26,169.24,690.49c1.94-15.52,4.5-31,7.67-46.36l455.2-455.2c15.34-3.17,30.84-5.73,46.36-7.67m26.89-12.75a596.79,596.79,0,0,0-78.21,11.24L167.73,639.16a597.18,597.18,0,0,0-11.24,78.22L705.36,168.51Z" transform="translate(-28.92 -41.94)"/><path class="cls-1" d="M188.88,947.31c-4.37-13.41-8.31-27.18-11.75-41.08L894.21,189.15c13.9,3.44,27.67,7.38,41.08,11.75Z" transform="translate(-28.92 -41.94)"/><path class="cls-2" d="M895.74,194.68c10.18,2.58,20.28,5.42,30.2,8.5L191.16,938c-3.08-9.92-5.92-20-8.49-30.2L895.74,194.68m-3.07-11.06L171.6,904.69q6.41,26.4,15.1,51.87L944.54,198.72q-25.44-8.7-51.87-15.1Z" transform="translate(-28.92 -41.94)"/><path class="cls-1" d="M724.57,1354.48c-16.26-.73-32.58-2.13-48.66-4.17l662.38-662.38c2,16.08,3.44,32.39,4.17,48.66Z" transform="translate(-28.92 -41.94)"/><path class="cls-2" d="M1334.53,698.75c1.31,11.9,2.25,23.89,2.83,35.87L722.6,1349.38c-12-.58-24-1.53-35.86-2.83l647.79-647.8m7.35-21.49L665.24,1353.9a600.54,600.54,0,0,0,61.31,5.67l621-621a597.46,597.46,0,0,0-5.67-61.31Z" transform="translate(-28.92 -41.94)"/><path class="cls-1" d="M382.19,1225.8c-9.72-7.78-19.4-16.06-28.88-24.69l835.78-835.78c8.63,9.48,16.91,19.16,24.69,28.88Z" transform="translate(-28.92 -41.94)"/><path class="cls-2" d="M1188.9,372.58c6.28,7,12.36,14.13,18.17,21.27L381.84,1219.09q-10.72-8.73-21.28-18.17L1188.9,372.58m.34-14.48L346.08,1201.26q17.63,16.32,36.5,31.23l837.89-837.9q-14.88-18.88-31.23-36.49Z" transform="translate(-28.92 -41.94)"/><path class="cls-1" d="M751.42,1355.12c-4.21,0-8.58,0-13.18-.17l604.69-604.69c.12,4.6.17,9,.17,13.18,0,13.7-.49,27.71-1.47,41.69L793.12,1353.65C779.13,1354.63,765.11,1355.12,751.42,1355.12Z" transform="translate(-28.92 -41.94)"/><path class="cls-2" d="M1338.1,762.16v1.28c0,13-.44,26.24-1.33,39.48L790.91,1348.79c-13.25.88-26.52,1.33-39.49,1.33h-1.28l588-588m9.45-23.59-621,621c8.25.33,16.54.55,24.87.55q22.16,0,43.91-1.61l551.16-551.16q1.59-21.75,1.61-43.91c0-8.34-.21-16.62-.55-24.87Z" transform="translate(-28.92 -41.94)"/><path class="cls-1" d="M1340.36,820.55a593.35,593.35,0,0,1-9.29,62.13L870.66,1343.09a596,596,0,0,1-62.13,9.29Z" transform="translate(-28.92 -41.94)"/><path class="cls-2" d="M1333.87,834.12c-1.87,15.49-4.34,30.91-7.4,46.08L868.19,1338.49c-15.18,3.06-30.6,5.53-46.09,7.39l511.77-511.76m12.62-26.77L795.33,1358.51a597.51,597.51,0,0,0,77.8-10.83l462.53-462.53a595.81,595.81,0,0,0,10.83-77.8Z" transform="translate(-28.92 -41.94)"/><path class="cls-1" d="M1292.58,1003a590.26,590.26,0,0,1-88.12,141l-72.5,72.51a590.51,590.51,0,0,1-141,88.12Z" transform="translate(-28.92 -41.94)"/><path class="cls-2" d="M1275.74,1026.93a586.92,586.92,0,0,1-75,113.66l-72.21,72.2a586.74,586.74,0,0,1-113.65,75l260.82-260.83M1307,981.57,969.55,1319a596.29,596.29,0,0,0,165.79-98.81l72.81-72.81A596.32,596.32,0,0,0,1307,981.57Z" transform="translate(-28.92 -41.94)"/><path class="cls-1" d="M1208.15,1147.36l-72.81,72.81A600.4,600.4,0,0,0,1208.15,1147.36Z" transform="translate(-28.92 -41.94)"/><path class="cls-2" d="M1208.15,1147.36l-72.81,72.81a600.4,600.4,0,0,0,72.81-72.81Z" transform="translate(-28.92 -41.94)"/><path class="cls-1" d="M1327.05,900.84a589.46,589.46,0,0,1-24.36,77.93L966.75,1314.71a589.46,589.46,0,0,1-77.93,24.36Z" transform="translate(-28.92 -41.94)"/><path class="cls-2" d="M1317.72,917.24A583.72,583.72,0,0,1,1298.41,976L964,1310.43a582.89,582.89,0,0,1-58.74,19.31l412.5-412.5m17.94-32.09L873.13,1347.68a591.76,591.76,0,0,0,96.42-28.7L1307,981.57a592.72,592.72,0,0,0,28.69-96.42Z" transform="translate(-28.92 -41.94)"/><path class="cls-1" d="M462.7,1280c-11.3-6.33-22.5-13.1-33.39-20.18l818.47-818.47c7.09,10.9,13.85,22.09,20.18,33.39Z" transform="translate(-28.92 -41.94)"/><path class="cls-2" d="M1246.93,449.25c5.14,8.09,10.09,16.32,14.81,24.62L461.85,1273.76c-8.3-4.72-16.53-9.68-24.62-14.81l809.7-809.7m1.66-15.8L421.43,1260.6q20.51,13.64,42.14,25.59l810.6-810.6q-11.94-21.63-25.58-42.14Z" transform="translate(-28.92 -41.94)"/><path class="cls-1" d="M507.17,1302.49c-11.88-5.4-23.73-11.27-35.33-17.5L1273,483.85c6.24,11.6,12.1,23.45,17.5,35.34Z" transform="translate(-28.92 -41.94)"/><path class="cls-2" d="M1271.72,492.17c4.48,8.56,8.74,17.24,12.76,25.94L506.09,1296.49c-8.7-4-17.38-8.28-25.93-12.75l791.56-791.57m2.45-16.58-810.6,810.6q21.81,12,44.7,22.27l788.18-788.17q-10.23-22.87-22.28-44.7Z" transform="translate(-28.92 -41.94)"/><path class="cls-1" d="M420.8,1254.16C410.25,1247,400,1239.62,390.11,1232L1220,402.13c7.6,9.85,15,20.14,22.15,30.69Z" transform="translate(-28.92 -41.94)"/><path class="cls-2" d="M1219.5,409.71c5.51,7.3,10.93,14.82,16.18,22.5L420.19,1247.7c-7.67-5.25-15.2-10.67-22.5-16.18L1219.5,409.71m1-15.12-837.89,837.9q18.82,14.82,38.85,28.11l827.16-827.15q-13.3-20-28.12-38.86Z" transform="translate(-28.92 -41.94)"/><path class="cls-1" d="M555.5,1321.88c-13-4.56-25.91-9.61-38.52-15.05L1294.81,529c5.45,12.62,10.49,25.53,15,38.53Z" transform="translate(-28.92 -41.94)"/><path class="cls-2" d="M1293.1,537.77c3.91,9.37,7.58,18.88,11,28.44l-749.91,749.9c-9.56-3.41-19.07-7.09-28.44-11L1293.1,537.77m3.35-17.48L508.27,1308.46q23.75,10.62,48.55,19.17l758.8-758.79q-8.55-24.8-19.17-48.55Z" transform="translate(-28.92 -41.94)"/><path class="cls-1" d="M607,1337.33c-13.8-3.46-27.54-7.44-41-11.86l747.4-747.4c4.42,13.43,8.4,27.16,11.86,41Z" transform="translate(-28.92 -41.94)"/><path class="cls-2" d="M1311.2,587.4c3.11,9.92,6,20,8.57,30.12L605.5,1331.79c-10.12-2.59-20.19-5.46-30.12-8.57L1311.2,587.4m4.42-18.56-758.8,758.79q25.36,8.76,51.74,15.23l722.29-722.28q-6.48-26.36-15.23-51.74Z" transform="translate(-28.92 -41.94)"/><path class="cls-1" d="M663.48,1348.59c-15.06-2.24-30.16-5.1-45.05-8.52l709.62-709.62c3.42,14.88,6.28,30,8.52,45Z" transform="translate(-28.92 -41.94)"/><path class="cls-2" d="M1325.14,640.43c2.36,11.05,4.4,22.19,6.11,33.32L661.73,1343.27c-11.12-1.71-22.27-3.75-33.32-6.11l696.73-696.73m5.71-19.85L608.56,1342.86q27.86,6.86,56.68,11l676.64-676.64q-4.16-28.82-11-56.68Z" transform="translate(-28.92 -41.94)"/><path class="cls-3" d="M750.42,346.54c-171.35,0-310.25,138.9-310.25,310.25,0,285.71,316.71,523.55,316.71,523.55s303.79-242.84,303.79-523.55C1060.67,485.44,921.77,346.54,750.42,346.54Zm0,439.52A129.27,129.27,0,1,1,879.69,656.79,129.27,129.27,0,0,1,750.42,786.06Z" transform="translate(-28.92 -41.94)"/></svg>