<?xml version="1.0" encoding="utf-8"?>
<!-- Generator: Adobe Illustrator 23.0.3, SVG Export Plug-In . SVG Version: 6.00 Build 0)  -->
<svg version="1.1" id="Layer_1" xmlns="http://www.w3.org/2000/svg" xmlns:xlink="http://www.w3.org/1999/xlink" x="0px" y="0px"
	 viewBox="0 0 1000 1000" style="enable-background:new 0 0 1000 1000;" xml:space="preserve">
<style type="text/css">
	.st0{fill:none;}
	.st1{fill:#FFD4B8;}
	.st2{fill:#42C6BA;}
	.st3{fill:#FFBCB0;}
	.st4{fill:#1E1E1E;}
	.st5{fill:#7F6775;}
</style>
<g>
	<g>
		<g>
			<g>
				<path class="st0" d="M124.11,441.17c1.7-1.4,3.44-2.77,5.21-4.1c-0.55,0.21-1.1,0.42-1.65,0.62
					C126.46,438.83,125.28,439.99,124.11,441.17z"/>
				<path class="st0" d="M214.05,391.46c-0.5,0.41-1,0.81-1.51,1.22c5.51-2.95,10.92-6.13,15.98-9.62
					c-0.77-0.03-1.53-0.16-2.27-0.38C222.44,385.97,218.34,388.86,214.05,391.46z"/>
				<path class="st0" d="M205.29,494.04c0.59-0.1,1.18-0.14,1.76-0.15c-0.66-0.3-1.32-0.59-1.98-0.87
					C205.16,493.34,205.24,493.69,205.29,494.04z"/>
				<path class="st0" d="M121.96,372.41c1.04-1.9,2.17-3.76,3.36-5.57c-2.09,2.87-4.05,5.83-5.88,8.88
					C120.24,374.6,121.08,373.48,121.96,372.41z"/>
				<path class="st0" d="M160.27,613.11c-1.36-1.45-2.66-2.95-3.9-4.49c1.31,2.23,2.72,4.4,4.24,6.52
					C160.47,614.47,160.35,613.8,160.27,613.11z"/>
				<path class="st0" d="M353.05,425.16c-5.63-44.63-21.93-81.7-47.13-107.2c-25.34-25.65-59.45-39.21-98.63-39.21
					c-39.18,0-73.28,13.56-98.63,39.21c-25.2,25.51-41.5,62.57-47.13,107.18c-0.34,2.61-0.71,5.33-1.09,8.19
					c-4.56,33.95-11.46,85.25-1.64,145.88l0.03,0.17c6.77,52.46,22.86,89.17,49.21,112.21c23.54,20.59,56,30.6,99.25,30.6
					c43.25,0,75.71-10.01,99.25-30.6c26.34-23.04,42.44-59.75,49.21-112.21l0.03-0.17c9.83-60.62,2.93-111.93-1.63-145.88
					C353.75,430.47,353.39,427.75,353.05,425.16z M265.37,446.98c2.24,2.87,4.09,6,5.26,9.43c0.88-1.04,1.87-2,2.93-2.86
					c5.28-4.28,13.08-7.24,19.92-6.23c4.72,0.7,8.83,2.92,11.48,6.99c2.29,3.53,3.59,7.86,3.58,12.08
					c-0.03,8.41-5.17,16.08-10.97,21.78c-6.28,6.17-13.9,11.16-21.84,14.94c-3.78,1.8-7.76,3.63-11.82,4.69
					c-3.89,1.01-9.12,2.55-12.19-0.91c-1.3-1.46-18.82-26.29-18.82-44.14c0-7.92,2.03-16.89,9.26-21.29
					C250.39,436.44,259.73,439.76,265.37,446.98z M231.71,428.35c-14.67,11.98-36,9.97-49.52-3.25c-0.91-0.89,0-2.68,1.29-2.22
					c8.98,3.21,17.26,7.87,27.16,7.1c7.33-0.57,13.75-4.26,18.75-9.55c5.54-5.86,9.52-12.95,12.86-20.25
					c3.38-7.39,5.01-16.53,10.27-22.78c1.39-1.66,3.61-0.13,3.78,1.58c0.51,5.06-1.33,9.66-3.09,14.34
					c-1.75,4.66-3.6,9.34-5.86,13.78C243.42,414.86,238.52,422.79,231.71,428.35z M86.77,526.77c-3.34-14.94,0.4-32.97,6.59-46.74
					c1.57-3.49,3.33-6.83,5.26-10.03c-2.68-0.54-4.91-2.72-4.69-6.44c0.12-1.99,0.31-3.97,0.54-5.95c-1.15,1.43-3.94,1.43-4.55-0.57
					c-3.03-9.97-1.24-20.93,0.35-31.06c1.67-10.7,4.75-21.33,8.5-31.46c7.5-20.25,19.42-38.82,35.46-53.33
					c28.38-25.69,68.26-32.36,104.42-23.17c6.81,1.73,17.32,5.44,17.37,9.61c0.81,0.76,1.46,1.7,1.84,2.84
					c0.39,1.17,0.69,2.32,0.92,3.46c0-0.44,0-0.88-0.02-1.33c-0.06-1.86,2.82-1.9,3.17-0.17c2.94,14.71-1.99,29.07-11.16,40.67
					c-24.86,31.44-65.71,42.27-98.86,62.27c-15.4,9.29-30.17,20.55-40.58,35.42c-3.27,4.68-6.1,9.61-8.39,14.79
					c5.5-0.85,11.73,0.38,16.29,2.54c5.53,2.61,26.21,13.47,32.35,13.67c4.33,0.14,8.23,0.02,12.51-0.63
					c3.31-0.51,8.51-1.62,10.54-2.35c3.39-1.22,6.72-2.69,9.78-4.6c0.25-0.19,1.35-0.95,1.4-0.98c0.69-0.54,1.39-1.07,2.04-1.66
					c1.47-1.32,2.71-2.77,4.46-3.68c-1.55-0.64-3.09-1.3-4.62-2.01c-11.11-5.14-20.95-14.57-24.02-26.77
					c-2.92-11.58,2.15-25.7,14.09-29.87c1.42-0.5,3.3,0.98,2.16,2.47c-4.02,5.2-8.94,9.97-9.55,16.91
					c-0.49,5.55,1.04,11.05,3.99,15.76c6.87,11,18.08,14.58,29.42,19.21c9.45,3.85,20.03,8.47,26.28,16.96
					c6.06,8.24,7.21,17.63,5.87,27.2c20.84-3.84,42.28,6.05,54.53,23.68c6.5,9.36,10.87,20.31,10.55,31.86
					c-0.31,10.96-4.83,24.64-14.94,30.28c-0.1,0.06-0.2,0.09-0.3,0.14c-2.26,3.56-4.77,6.94-7.47,10.07
					c-7.5,8.7-16.3,16.15-26.39,21.33c7-1.4,12.47-2.82,14.15-3.42c3.75-1.35,7.64-0.35,8.08,1.34c0.9,3.45-2.25,4.79-5.94,6.42
					c-3.69,1.63-13.92,4.56-18.73,5.59c-16.69,3.58-34.15,3.92-50.59-0.97c-20.45-6.08-38.07-21.46-48.89-39.7
					c-10.57-17.82-14.3-37.28-17.14-57.5c-1.32-9.41-2.5-19.1-5.86-28.04c-3.56-9.46-9.1-15.64-16.59-22.16
					c-1.44-1.26-0.11-3.31,1.62-2.78c-1.07-1.03-2.07-2.13-2.96-3.29c-3.09-2.16-6.34-4.25-9.23-6.72c-0.15,0.47-0.31,0.93-0.44,1.4
					c-3.02,10.31-3.49,20.64-5.38,31.11C93.28,530.35,87.71,531.01,86.77,526.77z M119.13,520.85c-0.19,0-0.17-0.29,0.02-0.29
					C119.34,520.56,119.32,520.85,119.13,520.85z M302.94,645.27c-5.22,6.68-11.42,12.24-18.51,16.88
					c-3.26,2.13-6.69,4.36-10.29,6.13c-8.1,4.49-16.7,8.08-25.55,10.69c-39.03,11.53-83.37,6.63-114.36-21.42
					c-16.04-14.52-27.95-33.09-35.46-53.33c-3.76-10.14-6.83-20.77-8.5-31.46c-1.58-10.13-3.38-21.09-0.35-31.06
					c0.69-2.26,4.17-1.97,4.91,0.07c3.28,9.11,3.39,19.13,5.28,28.6c1.87,9.37,4.1,18.59,7.42,27.57
					c6.49,17.56,16.01,34.48,29.6,47.57c14.65,14.11,32.59,23.75,52.82,26.69c19.66,2.86,40.09,0.74,58.86-5.75
					c6.94-2.4,15.13-5.58,22.2-8.71c2.7-1.05,7.69-4.62,8.55-5.25c5.33-3.92,8.48-6.93,12.87-11.91c3.86-4.38,7.04-9.77,8.31-15.51
					c1.48-6.73-0.7-12.75-1.35-19.35c-0.18-1.82,1.94-3.93,3.7-2.44C315.67,613.92,311.94,633.73,302.94,645.27z"/>
				<path class="st0" d="M210.68,646.84c-2.79-0.24-5.56-0.6-8.31-1.09c3.22,0.89,6.51,1.56,9.82,2.03
					C211.68,647.48,211.17,647.17,210.68,646.84z"/>
				<path class="st1" d="M124.11,441.17c1.16-1.18,2.35-2.34,3.56-3.48c0.55-0.2,1.1-0.42,1.65-0.62
					c14.99-11.27,32.16-20.12,48.92-28.02c10.33-4.87,22.54-10.09,34.3-16.38c0.5-0.41,1.01-0.81,1.51-1.22
					c4.29-2.6,8.39-5.49,12.21-8.79c0.74,0.22,1.5,0.35,2.27,0.38c17.19-11.85,30.42-27.26,30.26-49.14
					c-0.23-1.13-0.53-2.28-0.92-3.46c-0.38-1.14-1.03-2.08-1.84-2.84c0.01,0.41-0.09,0.83-0.3,1.25c-1.77,3.5-16.19-0.47-20.64-1.09
					c-14.94-2.06-30.25-3.41-45.14-1.24c-20.23,2.94-38.17,12.58-52.82,26.69c-4.34,4.18-8.26,8.75-11.8,13.6
					c-1.19,1.8-2.32,3.66-3.36,5.57c-0.89,1.07-1.72,2.19-2.52,3.31c-4.79,7.95-8.72,16.44-11.92,25.09
					c-3.32,8.98-5.55,18.2-7.42,27.57c-1.89,9.47-1.99,19.49-5.28,28.6c-0.09,0.24-0.21,0.45-0.36,0.63
					c-0.23,1.97-0.42,3.95-0.54,5.95c-0.22,3.72,2.01,5.9,4.69,6.44C105.34,458.83,114.13,449.38,124.11,441.17z"/>
				<path class="st2" d="M109.05,500.58c0.9,1.17,1.89,2.26,2.96,3.29c0.01,0,0.01,0,0.02,0c11.1,3.52,18.4,15.25,22.18,25.64
					c4.17,11.45,5.77,23.44,7.68,35.41c2.44,15.32,6.67,30.43,14.47,43.7c1.24,1.54,2.54,3.04,3.9,4.49
					c0.08,0.68,0.2,1.36,0.34,2.03c1.57,2.19,3.26,4.32,5.08,6.37c7.25,8.18,15.87,15.89,25.93,20.4c3.47,1.55,7.07,2.83,10.74,3.84
					c2.75,0.49,5.52,0.85,8.31,1.09c0.5,0.33,1,0.64,1.51,0.94c3.67,0.51,7.38,0.77,11.09,0.76c9.02-0.03,19.99-1.71,28.63-3.44
					c10.09-5.18,18.89-12.63,26.39-21.33c2.7-3.14,5.21-6.52,7.47-10.07c-2.94,1.32-5.15-2.33-3.83-4.85
					c2.5-4.75,6.17-8.73,8.08-13.83c1.6-4.29,2.47-8.75,2.37-13.35c-0.19-9.02-3.59-18.18-8.92-25.43
					c-11.58-15.73-31.54-25.83-50.99-19.24c-3.45,1.17-6.65-1.33-5.71-5.05c2.99-11.82,1.91-23.92-8.47-31.63
					c-3.54-2.63-7.34-4.66-11.26-6.44c-0.58,0.01-1.17,0.05-1.76,0.15c-0.05-0.35-0.13-0.69-0.22-1.02c-4.2-1.8-8.5-3.38-12.75-5.13
					c-1.75,0.91-2.98,2.36-4.46,3.68c-0.65,0.59-1.35,1.12-2.04,1.66c-0.04,0.03-1.14,0.79-1.4,0.98c-3.06,1.92-6.39,3.38-9.78,4.6
					c-2.03,0.73-7.23,1.85-10.54,2.35c-4.28,0.65-8.18,0.78-12.51,0.63c-6.15-0.2-26.83-11.06-32.35-13.67
					c-4.57-2.16-10.8-3.39-16.29-2.54c-1.19,2.69-2.22,5.46-3.11,8.28C102.71,496.33,105.97,498.42,109.05,500.58z"/>
				<path class="st3" d="M242.15,441.46c-7.23,4.41-9.26,13.38-9.26,21.29c0,17.85,17.53,42.68,18.82,44.14
					c3.07,3.46,8.3,1.92,12.19,0.91c4.06-1.06,8.04-2.89,11.82-4.69c7.93-3.78,15.55-8.77,21.84-14.94
					c5.8-5.69,10.94-13.36,10.97-21.78c0.01-4.21-1.29-8.55-3.58-12.08c-2.64-4.08-6.75-6.29-11.48-6.99
					c-6.84-1.02-14.64,1.95-19.92,6.23c-1.06,0.86-2.04,1.82-2.93,2.86c-1.16-3.43-3.02-6.56-5.26-9.43
					C259.73,439.76,250.39,436.44,242.15,441.46z"/>
				<path class="st4" d="M364.83,431.89c-0.38-2.84-0.75-5.55-1.08-8.11c-5.93-46.99-23.28-86.21-50.16-113.42
					c-27.42-27.75-64.18-42.42-106.31-42.42s-78.89,14.67-106.31,42.42C74.1,337.58,56.75,376.8,50.83,423.76
					c-0.33,2.57-0.7,5.29-1.08,8.13c-4.65,34.56-11.67,86.79-1.61,148.96c7.13,55.15,24.4,94.03,52.79,118.87
					c25.59,22.38,60.38,33.27,106.36,33.27s80.77-10.88,106.36-33.27c28.4-24.84,45.67-63.72,52.79-118.87
					C376.5,518.68,369.48,466.45,364.83,431.89z M355.77,579.21l-0.03,0.17c-6.77,52.46-22.86,89.17-49.21,112.21
					c-23.54,20.59-56,30.6-99.25,30.6c-43.25,0-75.71-10.01-99.25-30.6C81.7,668.55,65.6,631.84,58.83,579.38l-0.03-0.17
					c-9.83-60.62-2.93-111.93,1.64-145.88c0.38-2.86,0.75-5.58,1.09-8.19c5.63-44.61,21.93-81.67,47.13-107.18
					c25.35-25.65,59.45-39.21,98.63-39.21c39.18,0,73.28,13.56,98.63,39.21c25.2,25.51,41.5,62.57,47.13,107.2
					c0.34,2.59,0.7,5.31,1.09,8.17C358.7,467.28,365.6,518.58,355.77,579.21z"/>
				<path d="M94,526.37c1.89-10.48,2.36-20.81,5.38-31.11c0.14-0.47,0.3-0.93,0.44-1.4c0.89-2.83,1.92-5.59,3.11-8.28
					c2.29-5.18,5.12-10.11,8.39-14.79c10.41-14.88,25.18-26.13,40.58-35.42c33.15-20,74-30.83,98.86-62.27
					c9.17-11.6,14.1-25.96,11.16-40.67c-0.34-1.72-3.22-1.68-3.17,0.17c0.01,0.45,0.01,0.89,0.02,1.33
					c0.16,21.87-13.07,37.28-30.26,49.14c-5.06,3.49-10.47,6.68-15.98,9.62c-11.75,6.29-23.97,11.51-34.3,16.38
					c-16.76,7.9-33.93,16.75-48.92,28.02c-1.77,1.33-3.51,2.7-5.21,4.1c-9.98,8.2-18.77,17.65-25.5,28.83
					c-1.93,3.2-3.69,6.53-5.26,10.03c-6.19,13.78-9.93,31.8-6.59,46.74C87.71,531.01,93.28,530.35,94,526.37z"/>
				<path d="M212.19,647.79c-3.31-0.46-6.6-1.14-9.82-2.03c-3.67-1.01-7.27-2.29-10.74-3.84c-10.06-4.5-18.68-12.21-25.93-20.4
					c-1.82-2.05-3.51-4.18-5.08-6.37c-1.52-2.12-2.93-4.29-4.24-6.52c-7.8-13.27-12.03-28.38-14.47-43.7
					c-1.91-11.97-3.51-23.96-7.68-35.41c-3.78-10.39-11.08-22.12-22.18-25.64c-0.01,0-0.01,0-0.02,0c-1.73-0.53-3.06,1.52-1.62,2.78
					c7.49,6.53,13.04,12.7,16.59,22.16c3.36,8.94,4.55,18.63,5.86,28.04c2.84,20.23,6.57,39.68,17.14,57.5
					c10.82,18.25,28.44,33.62,48.89,39.7c16.43,4.89,33.9,4.55,50.59,0.97c4.81-1.03,15.04-3.96,18.73-5.59
					c3.69-1.63,6.84-2.97,5.94-6.42c-0.44-1.69-4.33-2.68-8.08-1.34c-1.68,0.6-7.15,2.03-14.15,3.42
					c-8.65,1.73-19.62,3.41-28.63,3.44C219.57,648.56,215.86,648.3,212.19,647.79z"/>
				<path class="st4" d="M100.1,428.38c1.87-9.37,4.1-18.59,7.42-27.57c3.2-8.65,7.13-17.13,11.92-25.09
					c1.83-3.05,3.79-6.01,5.88-8.88c3.54-4.85,7.46-9.43,11.8-13.6c14.65-14.11,32.59-23.75,52.82-26.69
					c14.89-2.17,30.2-0.82,45.14,1.24c4.45,0.61,18.87,4.59,20.64,1.09c0.21-0.42,0.3-0.84,0.3-1.25
					c-0.05-4.17-10.55-7.88-17.37-9.61c-36.17-9.19-76.04-2.52-104.42,23.17c-16.04,14.52-27.95,33.09-35.46,53.33
					c-3.76,10.14-6.83,20.77-8.5,31.46c-1.58,10.13-3.38,21.09-0.35,31.06c0.61,2,3.4,2,4.55,0.57c0.15-0.19,0.28-0.4,0.36-0.63
					C98.11,447.87,98.21,437.85,100.1,428.38z"/>
				<path d="M253.21,393.33c1.75-4.68,3.6-9.29,3.09-14.34c-0.17-1.71-2.39-3.24-3.78-1.58c-5.26,6.26-6.88,15.4-10.27,22.78
					c-3.34,7.3-7.32,14.38-12.86,20.25c-5,5.28-11.42,8.98-18.75,9.55c-9.91,0.77-18.18-3.89-27.16-7.1
					c-1.28-0.46-2.2,1.33-1.29,2.22c13.52,13.22,34.85,15.23,49.52,3.25c6.82-5.57,11.71-13.49,15.65-21.24
					C249.62,402.67,251.47,398,253.21,393.33z"/>
				<path class="st5" d="M119.13,520.85c0.19,0,0.21-0.29,0.02-0.29C118.96,520.56,118.94,520.85,119.13,520.85z"/>
				<path class="st4" d="M207.05,493.88c3.92,1.77,7.72,3.8,11.26,6.44c10.38,7.72,11.47,19.82,8.47,31.63
					c-0.94,3.72,2.25,6.22,5.71,5.05c19.45-6.59,39.41,3.51,50.99,19.24c5.33,7.24,8.73,16.41,8.92,25.43
					c0.1,4.6-0.77,9.05-2.37,13.35c-1.91,5.11-5.58,9.09-8.08,13.83c-1.33,2.52,0.89,6.17,3.83,4.85c0.1-0.04,0.2-0.08,0.3-0.14
					c10.11-5.63,14.63-19.32,14.94-30.28c0.32-11.56-4.05-22.51-10.55-31.86c-12.24-17.63-33.68-27.51-54.53-23.68
					c1.34-9.57,0.19-18.97-5.87-27.2c-6.25-8.49-16.83-13.11-26.28-16.96c-11.35-4.63-22.55-8.21-29.42-19.21
					c-2.95-4.72-4.47-10.21-3.99-15.76c0.61-6.94,5.53-11.72,9.55-16.91c1.15-1.48-0.73-2.96-2.16-2.47
					c-11.95,4.17-17.01,18.29-14.09,29.87c3.07,12.19,12.91,21.62,24.02,26.77c1.53,0.71,3.07,1.37,4.62,2.01
					c4.25,1.75,8.56,3.33,12.75,5.13C205.73,493.3,206.39,493.59,207.05,493.88z"/>
				<path class="st4" d="M303.07,603.25c-1.76-1.49-3.88,0.63-3.7,2.44c0.65,6.6,2.84,12.63,1.35,19.35
					c-1.27,5.74-4.45,11.13-8.31,15.51c-4.39,4.99-7.54,7.99-12.87,11.91c-0.85,0.63-5.85,4.2-8.55,5.25
					c-7.07,3.12-15.26,6.31-22.2,8.71c-18.77,6.49-39.2,8.61-58.86,5.75c-20.23-2.94-38.17-12.58-52.82-26.69
					c-13.59-13.09-23.11-30-29.6-47.57c-3.32-8.98-5.55-18.2-7.42-27.57c-1.89-9.47-1.99-19.49-5.28-28.6
					c-0.73-2.04-4.22-2.33-4.91-0.07c-3.03,9.97-1.24,20.93,0.35,31.06c1.67,10.7,4.75,21.33,8.5,31.46
					c7.5,20.25,19.42,38.82,35.46,53.33c30.99,28.05,75.33,32.95,114.36,21.42c8.85-2.61,17.46-6.2,25.55-10.69
					c3.6-1.77,7.03-4,10.29-6.13c7.09-4.63,13.29-10.19,18.51-16.88C311.94,633.73,315.67,613.92,303.07,603.25z"/>
			</g>
		</g>
	</g>
	<g>
		<path class="st4" d="M453.76,418.37c-10.69-25.24-17.08-45.44-19.15-60.58l-24.95,0.89v-19.6H513v14.7l-0.45,0.45
			c-9.8,0.6-17,2.75-21.6,6.46c-4.61,3.72-6.9,9.13-6.9,16.26c0,6.83,2.07,15.3,6.24,25.39l11.58,28.51
			c2.97,7.43,7.5,18.71,13.59,33.85c6.08,15.15,11.8,28.95,17.15,41.43l11.58,27.17c11.58,26.43,19.75,46.03,24.5,58.8h0.89
			l16.48-47.66l5.79-16.04l39.2-110.02l10.24-28.51c5.64-16.04,9.95-27.02,12.92-32.96l-34.3,1.78v-19.6h90.43v14.7
			c-13.07,0.6-23.09,4.01-30.07,10.25c-6.98,6.24-13.29,17.37-18.93,33.41l-93.99,257.92h-12.47L453.76,418.37z"/>
		<path class="st2" d="M726.82,636.19c10.39-0.29,17.82-2.67,22.27-7.13c4.46-4.46,6.98-9.72,7.57-15.81
			c0.59-6.08,0.89-16.7,0.89-31.85V388.97c0-12.47,0.45-23.16,1.33-32.07l-32.07,1.78v-19.6h100.23v14.7
			c-10.4,0.3-17.82,2.67-22.27,7.13c-4.46,4.46-6.98,9.73-7.57,15.81c-0.6,6.09-0.89,16.7-0.89,31.85v191.1
			c0,15.44-0.45,27.03-1.33,34.75l83.3-1.34c19-0.29,33.25-6.31,42.76-18.04c9.5-11.73,14.25-30.51,14.25-56.35h15.15l-2.67,92.21
			H726.82V636.19z"/>
	</g>
</g>
</svg>
