<svg id="Layer_2" data-name="Layer 2" xmlns="http://www.w3.org/2000/svg" viewBox="0 0 1143.85 203.77"><defs><style>.cls-1{fill:#42c6ba;}.cls-2{fill:none;}.cls-3{fill:#ffd4b8;}.cls-4{fill:#ffbcb0;}.cls-5{fill:#1e1e1e;}.cls-6{fill:#7f6775;}</style></defs><title>logo</title><path d="M609.39,473.25q-6-14.08-7.12-22.52l-9.27.33v-7.29h38.42v5.46l-.17.17q-5.46.33-8,2.4a7.32,7.32,0,0,0-2.57,6.05,25.92,25.92,0,0,0,2.32,9.43l4.31,10.6q1.65,4.14,5.05,12.59t6.37,15.4L643,516q6.47,14.74,9.11,21.86h.33l6.13-17.72,2.15-6,14.57-40.9,3.81-10.6a126.23,126.23,0,0,1,4.8-12.26l-12.75.67v-7.29h33.62v5.46q-7.29.34-11.18,3.81t-7,12.42l-34.94,95.88H647Z" transform="translate(-417.19 -398.43)"/><path class="cls-1" d="M1246,555.88q5.79-.17,8.27-2.64a9.42,9.42,0,0,0,2.82-5.88q.33-3.39.33-11.83V464.07q0-7,.49-11.91l-11.91.66v-7.28h37.23V451c-3.87.11-6.62,1-8.28,2.65a9.38,9.38,0,0,0-2.81,5.87q-.33,3.39-.33,11.83v71a119.91,119.91,0,0,1-.5,12.9l30.94-.49q10.59-.16,15.88-6.71t5.3-20.92H1329l-1,34.24H1246Z" transform="translate(-417.19 -398.43)"/><path d="M713.7,556.2a36.31,36.31,0,0,1-13.86-14.72,46.65,46.65,0,0,1-5.06-22.09,44.56,44.56,0,0,1,5.06-20.82A40.41,40.41,0,0,1,714,483a37.41,37.41,0,0,1,20.66-5.86,33.7,33.7,0,0,1,16.31,4,28.64,28.64,0,0,1,11.55,11.8q4.28,7.83,4.28,19.23l-55.73.95q-.15,19,6.26,29.6t19.86,10.61a33.64,33.64,0,0,0,15-3.8,32,32,0,0,0,11.8-9.34l3.8,3.17a36.87,36.87,0,0,1-15.6,13.61,44.52,44.52,0,0,1-18.75,4.43A38.23,38.23,0,0,1,713.7,556.2Zm38.23-49.79a30,30,0,0,0-4.28-16.3q-4.27-6.81-12.82-6.81-19.64,0-23.27,23.11Z" transform="translate(-417.19 -398.43)"/><path d="M780.9,556.59c3.06,0,5.24-.76,6.57-2.29a10.53,10.53,0,0,0,2.37-5.86c.26-2.37.4-6.09.4-11.16V501.19a64.11,64.11,0,0,1,.63-10.29l-11.24.47v-6.49h4.91q6,0,8.7-1a15.36,15.36,0,0,0,5.07-3.24h4.59q.63,6.17.79,15.67A38.52,38.52,0,0,1,815,484.72a26.64,26.64,0,0,1,15.28-5.06,12.25,12.25,0,0,1,7.91,2.53q3.16,2.54,3.17,7.44a8.23,8.23,0,0,1-2,5.07,6.71,6.71,0,0,1-5.62,2.53,7.14,7.14,0,0,1-5.7-2.61,7.69,7.69,0,0,1-1.74-6.26q-6-.15-12.11,4.6a39.4,39.4,0,0,0-10.37,12.66l.16,38.94a68.27,68.27,0,0,1-.63,10.77l10-.48v6.49H780.9Z" transform="translate(-417.19 -398.43)"/><path d="M867.57,556.2a38,38,0,0,1-14.41-14.33,40.75,40.75,0,0,1-5.3-20.74,47.9,47.9,0,0,1,5.22-22.4,40.51,40.51,0,0,1,14.33-15.83,36.92,36.92,0,0,1,20.18-5.78,39.44,39.44,0,0,1,20.11,5.31,38.85,38.85,0,0,1,14.48,14.48,40.05,40.05,0,0,1,5.31,20.42,47,47,0,0,1-5.31,22.17,41.45,41.45,0,0,1-14.4,16,36.58,36.58,0,0,1-20.19,5.85A40,40,0,0,1,867.57,556.2Zm38.31-10.69q5.46-9.5,5.46-23.59,0-16-5.94-27.38t-17.81-11.4q-11.72,0-17.65,9.66T864,516.54a62.49,62.49,0,0,0,2.77,18.92,32.75,32.75,0,0,0,8.39,14.17A19,19,0,0,0,888.86,555Q900.41,555,905.88,545.51Z" transform="translate(-417.19 -398.43)"/><path d="M940.94,556.59q4.59,0,6.57-2.29a9.94,9.94,0,0,0,2.3-5.7q.32-3.4.47-11.32l.16-36.09a64.11,64.11,0,0,1,.63-10.29l-11.24.63v-6.65q9.34,0,12.83-1a14.27,14.27,0,0,0,5.85-3.24h4.6q.32,3,.63,9.65A45.14,45.14,0,0,1,976,482.59a34.27,34.27,0,0,1,13.53-2.93q13.77,0,20.11,8.63t6.33,26.83v29.44a68.27,68.27,0,0,1-.63,10.77l10-.48v6.49H993v-4.75q4.59,0,6.57-2.29a10.54,10.54,0,0,0,2.38-5.86q.39-3.56.39-11.16V515.12q-.15-13.62-4.43-20.5t-13.45-6.89a24.79,24.79,0,0,0-11.32,2.85A27.39,27.39,0,0,0,963.9,498c.1,1.16.16,3.22.16,6.17l-.16,40.37a68,68,0,0,1-.64,10.77l10-.48v6.49h-32.3Z" transform="translate(-417.19 -398.43)"/><path d="M1037,556.59q4.59,0,6.57-2.29a10.54,10.54,0,0,0,2.38-5.86q.39-3.56.39-11.16V501.19a92.24,92.24,0,0,1,.64-10.29l-11.24.63v-6.65q9.33,0,13.37-1.11a14.79,14.79,0,0,0,6.26-3.16H1060v63.95a68,68,0,0,1-.64,10.77l10-.48v6.49H1037Zm9.82-94.43a9.39,9.39,0,0,1-2.54-6.57,9.53,9.53,0,0,1,2.62-6.64,7.84,7.84,0,0,1,12-.08,9.8,9.8,0,0,1,2.45,6.72,9.23,9.23,0,0,1-2.61,6.57,8.11,8.11,0,0,1-6.09,2.77A7.72,7.72,0,0,1,1046.85,462.16Z" transform="translate(-417.19 -398.43)"/><path d="M1100.43,556.43a36,36,0,0,1-14.17-14.08q-5.22-9.18-5.22-21.69a44.78,44.78,0,0,1,5.3-21.14,43.16,43.16,0,0,1,14.73-16.22,37.91,37.91,0,0,1,21.29-6.18,40.16,40.16,0,0,1,15.2,2.7,25.87,25.87,0,0,1,10.36,7.12,14.7,14.7,0,0,1,3.72,9.66,8.85,8.85,0,0,1-2.05,6,7.18,7.18,0,0,1-5.7,2.38,6.15,6.15,0,0,1-5.23-2.3,7.87,7.87,0,0,1-1.74-4.83,8.54,8.54,0,0,1,2.38-6.33,10.72,10.72,0,0,0-6.73-6.73,28.85,28.85,0,0,0-9.9-1.82,22.59,22.59,0,0,0-13.06,4,26.39,26.39,0,0,0-9.1,11.56,45.3,45.3,0,0,0-3.32,18.2,49,49,0,0,0,3.4,18.84,30.14,30.14,0,0,0,9.58,12.9,23,23,0,0,0,14.25,4.67,28.23,28.23,0,0,0,14-3.88,31.36,31.36,0,0,0,10.84-9.73l4.12,3.16a38.68,38.68,0,0,1-15.12,13.93,39.55,39.55,0,0,1-18.13,4.75A40.19,40.19,0,0,1,1100.43,556.43Z" transform="translate(-417.19 -398.43)"/><path d="M1169.93,556.12a17.06,17.06,0,0,1-6.1-13.62,19.72,19.72,0,0,1,7.36-15.51,47.36,47.36,0,0,1,18.53-9.42,79.54,79.54,0,0,1,22.4-2.93v-9.81q0-10.29-3-16.07T1196.29,483A21.91,21.91,0,0,0,1187,485a13.19,13.19,0,0,0-6.49,6.17,8.52,8.52,0,0,1,2,6,7,7,0,0,1-1.74,4.51,6.14,6.14,0,0,1-5.06,2.14,6.63,6.63,0,0,1-5.23-2.14,8.17,8.17,0,0,1-1.9-5.62,13.83,13.83,0,0,1,4-9.58,27.42,27.42,0,0,1,11.24-6.88,48.16,48.16,0,0,1,16.07-2.54q13.29,0,19.63,7.05t6.17,22.24l-.16,35.62a97.94,97.94,0,0,1-.63,10.76l11.24-.63v6.65h-22.64q-.48-2.37-1.11-9-11.55,11.55-24.85,11.55Q1176,561.34,1169.93,556.12Zm32.21-6.1a38.78,38.78,0,0,0,10-7q-.16-2.37-.16-8.07l.16-14.89a58.21,58.21,0,0,0-23.12,5.31q-10.12,4.83-10.13,14.8,0,5.86,3.49,9a12.61,12.61,0,0,0,8.86,3.17A25.45,25.45,0,0,0,1202.14,550Z" transform="translate(-417.19 -398.43)"/><path class="cls-1" d="M1345.67,556.12a17.08,17.08,0,0,1-6.09-13.62,19.69,19.69,0,0,1,7.36-15.51,47.25,47.25,0,0,1,18.52-9.42,79.54,79.54,0,0,1,22.4-2.93v-9.81q0-10.29-3-16.07T1372,483a21.91,21.91,0,0,0-9.34,2.06,13.19,13.19,0,0,0-6.49,6.17,8.52,8.52,0,0,1,2,6,7,7,0,0,1-1.74,4.51,6.14,6.14,0,0,1-5.06,2.14,6.63,6.63,0,0,1-5.23-2.14,8.17,8.17,0,0,1-1.9-5.62,13.83,13.83,0,0,1,4-9.58,27.42,27.42,0,0,1,11.24-6.88,48.16,48.16,0,0,1,16.07-2.54q13.29,0,19.63,7.05t6.17,22.24l-.16,35.62a97.94,97.94,0,0,1-.63,10.76l11.24-.63v6.65h-22.64c-.31-1.58-.69-4.59-1.11-9q-11.55,11.55-24.85,11.55Q1351.77,561.34,1345.67,556.12Zm32.21-6.1a38.78,38.78,0,0,0,10-7q-.16-2.37-.16-8.07l.16-14.89a58.12,58.12,0,0,0-23.11,5.31q-10.14,4.83-10.14,14.8,0,5.86,3.49,9a12.61,12.61,0,0,0,8.86,3.17A25.45,25.45,0,0,0,1377.88,550Z" transform="translate(-417.19 -398.43)"/><path class="cls-1" d="M1422.84,556.59q4.59,0,6.57-2.29a10.54,10.54,0,0,0,2.38-5.86q.39-3.56.39-11.16V501.19a62.74,62.74,0,0,1,.64-10.29l-11.24.47v-6.49h4.9q6,0,8.71-1a15.57,15.57,0,0,0,5.07-3.24h4.59q.63,6.17.79,15.67A38.52,38.52,0,0,1,1457,484.72a26.61,26.61,0,0,1,15.27-5.06,12.26,12.26,0,0,1,7.92,2.53q3.16,2.54,3.17,7.44a8.29,8.29,0,0,1-2,5.07,6.72,6.72,0,0,1-5.62,2.53,7.12,7.12,0,0,1-5.7-2.61,7.69,7.69,0,0,1-1.74-6.26q-6-.15-12.11,4.6a39.4,39.4,0,0,0-10.37,12.66l.16,38.94a68,68,0,0,1-.64,10.77l10-.48v6.49h-32.45Z" transform="translate(-417.19 -398.43)"/><path class="cls-1" d="M1494.79,556.12a17.08,17.08,0,0,1-6.09-13.62,19.69,19.69,0,0,1,7.36-15.51,47.32,47.32,0,0,1,18.52-9.42,79.59,79.59,0,0,1,22.4-2.93v-9.81q0-10.29-3-16.07T1521.15,483a21.94,21.94,0,0,0-9.34,2.06,13.23,13.23,0,0,0-6.49,6.17,8.52,8.52,0,0,1,2.06,6,7,7,0,0,1-1.74,4.51,6.16,6.16,0,0,1-5.07,2.14,6.61,6.61,0,0,1-5.22-2.14,8.12,8.12,0,0,1-1.9-5.62,13.82,13.82,0,0,1,4-9.58,27.48,27.48,0,0,1,11.24-6.88,48.2,48.2,0,0,1,16.07-2.54q13.31,0,19.63,7.05t6.18,22.24l-.16,35.62a95.64,95.64,0,0,1-.64,10.76l11.24-.63v6.65h-22.63q-.48-2.37-1.11-9-11.57,11.55-24.86,11.55Q1500.89,561.34,1494.79,556.12ZM1527,550a38.74,38.74,0,0,0,10-7c-.1-1.58-.16-4.27-.16-8.07L1537,520a58.16,58.16,0,0,0-23.11,5.31q-10.14,4.83-10.13,14.8,0,5.86,3.48,9a12.64,12.64,0,0,0,8.87,3.17A25.49,25.49,0,0,0,1527,550Z" transform="translate(-417.19 -398.43)"/><path class="cls-2" d="M452.73,474.33c.75-.61,1.51-1.21,2.29-1.79l-.73.27C453.76,473.31,453.24,473.82,452.73,474.33Z" transform="translate(-417.19 -398.43)"/><path class="cls-2" d="M492.14,452.55l-.66.54a75.53,75.53,0,0,0,7-4.22,4.19,4.19,0,0,1-1-.17A39.37,39.37,0,0,1,492.14,452.55Z" transform="translate(-417.19 -398.43)"/><path class="cls-2" d="M488.3,497.5a5.12,5.12,0,0,1,.77-.07l-.87-.38A3.27,3.27,0,0,1,488.3,497.5Z" transform="translate(-417.19 -398.43)"/><path class="cls-2" d="M451.79,444.2c.46-.83.95-1.64,1.47-2.44q-1.36,1.89-2.58,3.9C451,445.16,451.4,444.67,451.79,444.2Z" transform="translate(-417.19 -398.43)"/><path class="cls-2" d="M468.57,549.68c-.59-.64-1.16-1.29-1.7-2,.57,1,1.19,1.93,1.86,2.86C468.66,550.27,468.61,550,468.57,549.68Z" transform="translate(-417.19 -398.43)"/><path class="cls-2" d="M553.05,467.32c-2.47-19.56-9.61-35.8-20.65-47s-26-17.18-43.22-17.18S457.07,409.1,446,420.34s-18.18,27.42-20.65,47c-.15,1.14-.31,2.34-.48,3.59-2,14.87-5,37.35-.71,63.92v.07c3,23,10,39.08,21.56,49.17,10.31,9,24.54,13.41,43.49,13.41s33.18-4.39,43.49-13.41c11.54-10.09,18.59-26.18,21.56-49.17v-.07c4.31-26.57,1.28-49.05-.72-63.92C553.36,469.65,553.2,468.45,553.05,467.32Zm-38.42,9.56a14.09,14.09,0,0,1,2.3,4.13,9.44,9.44,0,0,1,1.28-1.25,12,12,0,0,1,8.73-2.73,7,7,0,0,1,5,3.06,9.86,9.86,0,0,1,1.57,5.3c0,3.68-2.27,7-4.81,9.54a35.37,35.37,0,0,1-9.56,6.54,30.71,30.71,0,0,1-5.18,2.06c-1.71.44-4,1.12-5.35-.4-.56-.64-8.24-11.52-8.24-19.34,0-3.47.89-7.4,4.06-9.33C508.07,472.26,512.16,473.71,514.63,476.88Zm-14.75-8.16c-6.43,5.25-15.78,4.37-21.7-1.43-.4-.39,0-1.17.56-1,3.94,1.41,7.57,3.45,11.91,3.11a12.74,12.74,0,0,0,8.21-4.18,32.29,32.29,0,0,0,5.64-8.87c1.48-3.24,2.19-7.24,4.5-10,.61-.72,1.58-.05,1.65.7.23,2.21-.58,4.23-1.35,6.28a57.25,57.25,0,0,1-2.56,6C505,462.81,502.86,466.28,499.88,468.72Zm-63.51,43.12c-1.47-6.55.17-14.44,2.88-20.48a40.62,40.62,0,0,1,2.31-4.39,2.55,2.55,0,0,1-2.06-2.83c.06-.87.14-1.74.24-2.6a1.16,1.16,0,0,1-2-.25c-1.33-4.37-.54-9.17.15-13.61a71.73,71.73,0,0,1,3.73-13.79,59.11,59.11,0,0,1,15.53-23.37c12.44-11.25,29.91-14.17,45.76-10.15,3,.76,7.59,2.38,7.61,4.21a3,3,0,0,1,.81,1.24,13.16,13.16,0,0,1,.4,1.52c0-.19,0-.39,0-.58,0-.82,1.24-.83,1.39-.08,1.29,6.45-.87,12.74-4.89,17.82-10.89,13.78-28.79,18.52-43.32,27.29-6.75,4.07-13.22,9-17.78,15.52a38.45,38.45,0,0,0-3.68,6.48,13.07,13.07,0,0,1,7.14,1.11c2.42,1.15,11.48,5.9,14.18,6a28.73,28.73,0,0,0,5.48-.27,33.84,33.84,0,0,0,4.62-1,22.61,22.61,0,0,0,4.28-2l.62-.43c.3-.23.61-.47.89-.73a10,10,0,0,1,2-1.61c-.68-.28-1.36-.57-2-.88-4.87-2.25-9.18-6.39-10.53-11.73-1.28-5.07.95-11.26,6.18-13.09.62-.22,1.45.43.94,1.08-1.76,2.28-3.91,4.37-4.18,7.41a11.24,11.24,0,0,0,1.75,6.91c3,4.82,7.92,6.39,12.89,8.42,4.14,1.69,8.78,3.71,11.52,7.43s3.16,7.73,2.57,11.92c9.13-1.68,18.53,2.65,23.89,10.38a23.45,23.45,0,0,1,4.62,14c-.13,4.8-2.11,10.8-6.54,13.27l-.13.06a37.63,37.63,0,0,1-3.28,4.41,38.82,38.82,0,0,1-11.56,9.34,58.35,58.35,0,0,0,6.2-1.5c1.64-.59,3.35-.15,3.54.59.39,1.51-1,2.1-2.61,2.81a60.76,60.76,0,0,1-8.2,2.45,44.86,44.86,0,0,1-22.17-.42c-9-2.67-16.68-9.4-21.42-17.4-4.63-7.81-6.27-16.33-7.51-25.2-.58-4.12-1.1-8.36-2.57-12.28-1.56-4.15-4-6.85-7.27-9.71a.72.72,0,0,1,.71-1.22,13.63,13.63,0,0,1-1.3-1.44c-1.35-.95-2.77-1.87-4-2.95-.06.21-.13.41-.2.62-1.32,4.51-1.52,9-2.35,13.63A1.61,1.61,0,0,1,436.37,511.84Zm14.18-2.59c-.09,0-.08-.13,0-.13S450.63,509.25,450.55,509.25Zm80.54,54.51a33.23,33.23,0,0,1-8.11,7.4,42.87,42.87,0,0,1-4.51,2.68,55.77,55.77,0,0,1-11.2,4.69c-17.1,5.05-36.53,2.91-50.11-9.39a59.11,59.11,0,0,1-15.53-23.37A71.63,71.63,0,0,1,437.9,532c-.69-4.44-1.48-9.25-.15-13.61a1.17,1.17,0,0,1,2.15,0c1.44,4,1.48,8.38,2.31,12.53A80.06,80.06,0,0,0,445.46,543c2.85,7.7,7,15.11,13,20.84a42,42,0,0,0,23.15,11.7A55.26,55.26,0,0,0,507.37,573c3-1,6.63-2.45,9.73-3.82a23.34,23.34,0,0,0,3.74-2.3,31,31,0,0,0,5.64-5.22,15.76,15.76,0,0,0,3.64-6.79c.65-2.95-.31-5.59-.59-8.48-.08-.8.85-1.72,1.62-1.07C536.67,550,535,558.71,531.09,563.76Z" transform="translate(-417.19 -398.43)"/><path class="cls-2" d="M490.66,564.46c-1.22-.11-2.43-.27-3.64-.48a33.14,33.14,0,0,0,4.3.89Z" transform="translate(-417.19 -398.43)"/><path class="cls-3" d="M452.73,474.33c.51-.51,1-1,1.56-1.52l.73-.27c6.56-4.94,14.09-8.82,21.43-12.28,4.53-2.13,9.88-4.42,15-7.17l.66-.54a39.37,39.37,0,0,0,5.35-3.85,4.19,4.19,0,0,0,1,.17c7.53-5.19,13.33-11.95,13.26-21.53a13.16,13.16,0,0,0-.4-1.52,3,3,0,0,0-.81-1.24,1.26,1.26,0,0,1-.13.55c-.78,1.53-7.09-.21-9-.48-6.55-.9-13.26-1.49-19.78-.54a42,42,0,0,0-23.15,11.69,46.52,46.52,0,0,0-5.17,6c-.52.8-1,1.61-1.47,2.44-.39.47-.75,1-1.11,1.46a65.39,65.39,0,0,0-5.22,11,79.74,79.74,0,0,0-3.25,12.08c-.83,4.15-.87,8.54-2.31,12.53a1,1,0,0,1-.16.28c-.1.86-.18,1.73-.24,2.6a2.55,2.55,0,0,0,2.06,2.83A49.63,49.63,0,0,1,452.73,474.33Z" transform="translate(-417.19 -398.43)"/><path class="cls-1" d="M446.13,500.37a13.63,13.63,0,0,0,1.3,1.44h0c4.86,1.54,8.06,6.68,9.72,11.24,1.83,5,2.53,10.27,3.36,15.51a54.38,54.38,0,0,0,6.35,19.15c.54.68,1.11,1.33,1.7,2,0,.3.09.59.16.89a34.35,34.35,0,0,0,2.22,2.79,34.9,34.9,0,0,0,11.36,8.94A32.57,32.57,0,0,0,487,564c1.21.21,2.42.37,3.64.48l.66.41a34.41,34.41,0,0,0,4.86.33,69.88,69.88,0,0,0,12.55-1.51,38.82,38.82,0,0,0,11.56-9.34,37.63,37.63,0,0,0,3.28-4.41c-1.29.57-2.26-1-1.68-2.13,1.1-2.08,2.7-3.83,3.54-6.06a15.84,15.84,0,0,0,1-5.85,19.88,19.88,0,0,0-3.91-11.14c-5.07-6.9-13.82-11.32-22.34-8.43a1.83,1.83,0,0,1-2.5-2.22c1.31-5.18.83-10.48-3.72-13.86a26.59,26.59,0,0,0-4.93-2.82,5.12,5.12,0,0,0-.77.07,3.27,3.27,0,0,0-.1-.45c-1.84-.79-3.72-1.48-5.58-2.25a10,10,0,0,0-2,1.61c-.28.26-.59.5-.89.73l-.62.43a22.61,22.61,0,0,1-4.28,2,33.84,33.84,0,0,1-4.62,1,28.73,28.73,0,0,1-5.48.27c-2.7-.09-11.76-4.84-14.18-6a13.07,13.07,0,0,0-7.14-1.11,35.11,35.11,0,0,0-1.36,3.63C443.36,498.5,444.78,499.42,446.13,500.37Z" transform="translate(-417.19 -398.43)"/><path class="cls-4" d="M504.46,474.46c-3.17,1.93-4.06,5.86-4.06,9.33,0,7.82,7.68,18.7,8.24,19.34,1.35,1.52,3.64.84,5.35.4a30.71,30.71,0,0,0,5.18-2.06,35.37,35.37,0,0,0,9.56-6.54c2.54-2.5,4.8-5.86,4.81-9.54a9.86,9.86,0,0,0-1.57-5.3,7,7,0,0,0-5-3.06,12,12,0,0,0-8.73,2.73,9.44,9.44,0,0,0-1.28,1.25,14.09,14.09,0,0,0-2.3-4.13C512.16,473.71,508.07,472.26,504.46,474.46Z" transform="translate(-417.19 -398.43)"/><path class="cls-5" d="M558.21,470.27c-.17-1.25-.33-2.44-.47-3.55-2.6-20.59-10.2-37.78-22-49.7-12-12.16-28.12-18.59-46.58-18.59S454.61,404.86,442.6,417c-11.78,11.92-19.38,29.11-22,49.69-.15,1.12-.31,2.31-.48,3.56-2,15.14-5.11,38-.7,65.27,3.12,24.16,10.69,41.2,23.13,52.08,11.22,9.81,26.46,14.58,46.61,14.58s35.39-4.77,46.6-14.58c12.44-10.88,20-27.92,23.14-52.08C563.32,508.3,560.25,485.41,558.21,470.27Zm-4,64.55v.07c-3,23-10,39.08-21.56,49.17-10.31,9-24.54,13.41-43.49,13.41s-33.18-4.39-43.49-13.41c-11.54-10.09-18.6-26.18-21.56-49.17v-.07c-4.31-26.57-1.29-49.05.71-63.92.17-1.25.33-2.45.48-3.59,2.47-19.55,9.61-35.79,20.65-47s26.05-17.18,43.22-17.18,32.11,5.94,43.22,17.18,18.18,27.42,20.65,47c.15,1.13.31,2.33.47,3.58C555.52,485.77,558.55,508.25,554.24,534.82Z" transform="translate(-417.19 -398.43)"/><path d="M439.54,511.67c.83-4.59,1-9.12,2.35-13.63.07-.21.14-.41.2-.62a35.11,35.11,0,0,1,1.36-3.63,38.45,38.45,0,0,1,3.68-6.48c4.56-6.52,11-11.45,17.78-15.52,14.53-8.77,32.43-13.51,43.32-27.29,4-5.08,6.18-11.37,4.89-17.82-.15-.75-1.41-.74-1.39.08,0,.19,0,.39,0,.58.07,9.58-5.73,16.34-13.26,21.53a75.53,75.53,0,0,1-7,4.22c-5.15,2.75-10.5,5-15,7.17-7.34,3.46-14.87,7.34-21.43,12.28-.78.58-1.54,1.18-2.29,1.79A49.63,49.63,0,0,0,441.56,487a40.62,40.62,0,0,0-2.31,4.39c-2.71,6-4.35,13.93-2.88,20.48A1.61,1.61,0,0,0,439.54,511.67Z" transform="translate(-417.19 -398.43)"/><path d="M491.32,564.87A33.14,33.14,0,0,1,487,564a32.57,32.57,0,0,1-4.71-1.68A34.9,34.9,0,0,1,471,553.36a34.35,34.35,0,0,1-2.22-2.79c-.67-.93-1.29-1.88-1.86-2.86a54.38,54.38,0,0,1-6.35-19.15c-.83-5.24-1.53-10.49-3.36-15.51-1.66-4.56-4.86-9.7-9.72-11.24h0a.72.72,0,0,0-.71,1.22c3.28,2.86,5.71,5.56,7.27,9.71,1.47,3.92,2,8.16,2.57,12.28,1.24,8.87,2.88,17.39,7.51,25.2,4.74,8,12.46,14.73,21.42,17.4a44.86,44.86,0,0,0,22.17.42,60.76,60.76,0,0,0,8.2-2.45c1.62-.71,3-1.3,2.61-2.81-.19-.74-1.9-1.18-3.54-.59a58.35,58.35,0,0,1-6.2,1.5,69.88,69.88,0,0,1-12.55,1.51A34.41,34.41,0,0,1,491.32,564.87Z" transform="translate(-417.19 -398.43)"/><path class="cls-5" d="M442.21,468.73a79.74,79.74,0,0,1,3.25-12.08,65.39,65.39,0,0,1,5.22-11q1.21-2,2.58-3.9a46.52,46.52,0,0,1,5.17-6,42,42,0,0,1,23.15-11.69c6.52-.95,13.23-.36,19.78.54,1.95.27,8.26,2,9,.48a1.26,1.26,0,0,0,.13-.55c0-1.83-4.62-3.45-7.61-4.21-15.85-4-33.32-1.1-45.76,10.15a59.11,59.11,0,0,0-15.53,23.37,71.73,71.73,0,0,0-3.73,13.79c-.69,4.44-1.48,9.24-.15,13.61a1.16,1.16,0,0,0,2,.25,1,1,0,0,0,.16-.28C441.34,477.27,441.38,472.88,442.21,468.73Z" transform="translate(-417.19 -398.43)"/><path d="M509.3,453.37c.77-2.05,1.58-4.07,1.35-6.28-.07-.75-1-1.42-1.65-.7-2.31,2.75-3,6.75-4.5,10a32.29,32.29,0,0,1-5.64,8.87,12.74,12.74,0,0,1-8.21,4.18c-4.34.34-8-1.7-11.91-3.11-.56-.2-1,.58-.56,1,5.92,5.8,15.27,6.68,21.7,1.43,3-2.44,5.13-5.91,6.86-9.31A57.25,57.25,0,0,0,509.3,453.37Z" transform="translate(-417.19 -398.43)"/><path class="cls-6" d="M450.55,509.25c.08,0,.09-.13,0-.13S450.46,509.25,450.55,509.25Z" transform="translate(-417.19 -398.43)"/><path class="cls-5" d="M489.07,497.43a26.59,26.59,0,0,1,4.93,2.82c4.55,3.38,5,8.68,3.72,13.86a1.83,1.83,0,0,0,2.5,2.22c8.52-2.89,17.27,1.53,22.34,8.43a19.88,19.88,0,0,1,3.91,11.14,15.84,15.84,0,0,1-1,5.85c-.84,2.23-2.44,4-3.54,6.06-.58,1.1.39,2.7,1.68,2.13l.13-.06c4.43-2.47,6.41-8.47,6.54-13.27a23.45,23.45,0,0,0-4.62-14c-5.36-7.73-14.76-12.06-23.89-10.38.59-4.19.08-8.31-2.57-11.92s-7.38-5.74-11.52-7.43c-5-2-9.88-3.6-12.89-8.42a11.24,11.24,0,0,1-1.75-6.91c.27-3,2.42-5.13,4.18-7.41.51-.65-.32-1.3-.94-1.08-5.23,1.83-7.46,8-6.18,13.09,1.35,5.34,5.66,9.48,10.53,11.73.67.31,1.35.6,2,.88,1.86.77,3.74,1.46,5.58,2.25Z" transform="translate(-417.19 -398.43)"/><path class="cls-5" d="M531.15,545.36c-.77-.65-1.7.27-1.62,1.07.28,2.89,1.24,5.53.59,8.48a15.76,15.76,0,0,1-3.64,6.79,31,31,0,0,1-5.64,5.22,23.34,23.34,0,0,1-3.74,2.3c-3.1,1.37-6.69,2.77-9.73,3.82a55.26,55.26,0,0,1-25.79,2.52,42,42,0,0,1-23.15-11.7c-5.95-5.73-10.12-13.14-13-20.84a80.06,80.06,0,0,1-3.25-12.08c-.83-4.15-.87-8.54-2.31-12.53a1.17,1.17,0,0,0-2.15,0c-1.33,4.36-.54,9.17.15,13.61a71.63,71.63,0,0,0,3.73,13.78,59.11,59.11,0,0,0,15.53,23.37c13.58,12.3,33,14.44,50.11,9.39a55.77,55.77,0,0,0,11.2-4.69,42.87,42.87,0,0,0,4.51-2.68,33.23,33.23,0,0,0,8.11-7.4C535,558.71,536.67,550,531.15,545.36Z" transform="translate(-417.19 -398.43)"/></svg>