<svg id="Obstetricia" xmlns="http://www.w3.org/2000/svg" viewBox="0 0 44.16 98.17"><defs><style>.cls-1{fill:#4abfb6;}</style></defs><title>obstetricia</title><path class="cls-1" d="M254.42,299a1.15,1.15,0,0,1-1.14-1c0-.06-.88-5.52-1.79-9.8a1.15,1.15,0,0,1,.61-1.27l1.23-.61c5.29-2.61,9.86-4.87,11.38-14.65a13.32,13.32,0,0,0-3.33-11.31,17.59,17.59,0,0,0-4.67-3.73,1.15,1.15,0,0,1-.64-.89,1.17,1.17,0,0,1,.39-1c2.33-2,3.41-3.7,3.3-5.22-.16-2.31-3.17-4.52-6.4-6.57-5.47-3.48-6.76-10.46-6.77-11.6,0-.39,0-1.09,3.43-4.82a1.13,1.13,0,0,1,.88-.36,1.15,1.15,0,0,1,.86.42,10.32,10.32,0,0,0,4.39,3c3.56-1,6.23-5.07,7-7.74a1.15,1.15,0,1,1,2.21.64c-.88,3.05-4.09,8.31-8.95,9.41a1.25,1.25,0,0,1-.51,0,11.24,11.24,0,0,1-5-2.93,22.75,22.75,0,0,0-2,2.47c.15,1,1.17,6.65,5.69,9.52,4.32,2.75,7.24,5.22,7.46,8.36.14,2-.82,3.95-2.93,6a20.35,20.35,0,0,1,3.91,3.37A15.71,15.71,0,0,1,267,272.05c-1.7,11-7.26,13.71-12.64,16.36l-.42.21c.85,4.17,1.62,9,1.63,9.05a1.16,1.16,0,0,1-1,1.32Zm-5.57-67.39Z" transform="translate(-228.11 -200.83)"/><path class="cls-1" d="M231.13,296.28a1.14,1.14,0,0,1-1-.68c-1.42-3.11-2.19-5.53-1.92-8.66s1.64-6.89,4.54-12.38c4-7.63,3-11.14,1-18.15-.73-2.53-1.56-5.4-2.33-9-1.25-5.87-.75-10.83,1.48-14.75a15,15,0,0,1,5.25-5.38l.26-.17a25.36,25.36,0,0,0,3.9-5,1.15,1.15,0,0,1,2.2.68,23.53,23.53,0,0,1-4.78,6.22l-.34.23c-5.54,3.54-7.46,9.5-5.72,17.71.76,3.56,1.57,6.39,2.29,8.88,1.05,3.63,1.87,6.49,1.87,9.5,0,3.18-.94,6.38-3,10.37-5.49,10.37-5,13.6-2.56,19a1.16,1.16,0,0,1-.57,1.53A1.18,1.18,0,0,1,231.13,296.28Zm11.14-74.22v0Z" transform="translate(-228.11 -200.83)"/><path class="cls-1" d="M241.55,273.56a1.24,1.24,0,0,1-.27,0c-.76-.19-1.63-.85-2.75-4.42a65.81,65.81,0,0,1-1.91-8.43c-1.28-7.62-1.6-15.06-.88-19.92a1.15,1.15,0,0,1,2.28.34c-.66,4.43-.38,11.32.75,18.43a71.11,71.11,0,0,0,1.73,8.12,13.39,13.39,0,0,0,1.39,3.57c3.74-.51,10.87-5.4,13.38-7.32a1.15,1.15,0,0,1,1.17-.13s.49.21,2.86,1.3c1.49.64,2.62.78,3.09.39s.51-1.58.41-2.31a11.81,11.81,0,0,0-5.38-2.32c-3.29,1.34-11.34,5-11.42,5a1.16,1.16,0,0,1-1.1-.08,1.19,1.19,0,0,1-.53-1,135.49,135.49,0,0,1,.92-14.59c1.25-10.54-.9-12.91-2.19-14.32-.07-.08-.14-.15-.2-.23A1.13,1.13,0,0,1,243,234a1.16,1.16,0,0,1,1.63.09l.18.21a10,10,0,0,1,2.52,4.51c.77,2.82.86,6.62.26,11.64-.63,5.26-.82,10-.88,12.51,2.66-1.18,7.82-3.47,10.13-4.4a1.2,1.2,0,0,1,.56-.08,13.92,13.92,0,0,1,7.25,3.18,1.18,1.18,0,0,1,.35.59c.08.35.71,3.43-1.12,5-1.22,1-3.06,1-5.49-.05h0l-2.24-1c-.89.65-2.76,2-5,3.35-4.17,2.59-7.38,3.95-9.54,4.06Z" transform="translate(-228.11 -200.83)"/><path class="cls-1" d="M234.94,232.72a1.15,1.15,0,0,1-.76-2c1.8-1.61,3.51-5.8,3.74-9.14,0-.18,0-.38,0-.59.26-4.26.92-15.57,12.84-19.35,6.61-2.09,11,.34,13.42,2.74a16.88,16.88,0,0,1,3.54,5.16,7.81,7.81,0,0,1,3.43,3.21,6.75,6.75,0,0,1,.86,5.31,6.62,6.62,0,0,1-4.74,4.78,23.84,23.84,0,0,1-6.74.65c-2.92,0-5.93,0-7.67,1.34a1.15,1.15,0,0,1-1.39,0,1.17,1.17,0,0,1-.43-.64c-2.19,2.12-4,4.45-4.3,7.4a1.16,1.16,0,0,1-.89,1,1.14,1.14,0,0,1-1.24-.52c-1.51-2.43-3-10.91-2.36-13.74a1.16,1.16,0,0,1,1.37-.89,1.14,1.14,0,0,1,.88,1.37c-.33,1.54.21,5.76,1,8.87,1.42-3,4-5.26,6.38-7.36l1.49-1.34a1.15,1.15,0,0,1,1.62,1.63,6,6,0,0,0-.59,1,26.73,26.73,0,0,1,6.15-.49c5.11,0,8.29-.29,9.28-3.75a4.64,4.64,0,0,0-.63-3.51,5.16,5.16,0,0,0-2.58-2.33,1.13,1.13,0,0,1-.83-.74,14.27,14.27,0,0,0-3.24-4.87c-2.94-2.82-6.66-3.54-11.07-2.14-10.4,3.3-11,13.1-11.23,17.28,0,.22,0,.43,0,.61-.27,4-2.25,8.69-4.51,10.71A1.17,1.17,0,0,1,234.94,232.72Z" transform="translate(-228.11 -200.83)"/></svg>