<svg id="Layer_3" data-name="Layer 3" xmlns="http://www.w3.org/2000/svg" viewBox="0 0 1443 1443"><defs><style>.cls-1,.cls-3{fill:#fff;}.cls-2{fill:#42c6ba;}.cls-3{stroke:#42c6ba;stroke-miterlimit:10;stroke-width:5px;}</style></defs><title>privacidad</title><path class="cls-1" d="M748.75,1467.6A716.69,716.69,0,0,1,469.86,90.9a716.69,716.69,0,0,1,557.79,1320.39A712.06,712.06,0,0,1,748.75,1467.6Z" transform="translate(-27.25 -29.6)"/><path class="cls-2" d="M748.75,39.6a708.21,708.21,0,0,1,397.8,121.5,713.69,713.69,0,0,1,257.8,313,710.56,710.56,0,0,1-65.6,674.75,713.74,713.74,0,0,1-313,257.79A710.56,710.56,0,0,1,351,1341.09,713.59,713.59,0,0,1,93.16,1028a710.51,710.51,0,0,1,65.6-674.74A713.38,713.38,0,0,1,471.81,95.51,707,707,0,0,1,748.75,39.6m0-10c-398.47,0-721.5,323-721.5,721.5s323,721.5,721.5,721.5,721.5-323,721.5-721.5-323-721.5-721.5-721.5Z" transform="translate(-27.25 -29.6)"/><path class="cls-1" d="M227.49,1029.38c-6.15-11.54-12-23.41-17.4-35.42L992.61,211.43c12,5.41,23.89,11.25,35.43,17.41Z" transform="translate(-27.25 -29.6)"/><path class="cls-2" d="M993.7,217.42c8.78,4,17.47,8.26,26,12.68L228.76,1021.05c-4.43-8.53-8.67-17.23-12.69-26L993.7,217.42m-2.19-12L204.12,992.86q10.17,22.92,22.17,44.8l810-810q-21.87-12-44.81-22.17Z" transform="translate(-27.25 -29.6)"/><path class="cls-1" d="M205.77,984.14c-5.47-12.74-10.49-25.68-15-38.6L944.2,192.13c12.91,4.49,25.85,9.52,38.59,15Z" transform="translate(-27.25 -29.6)"/><path class="cls-2" d="M945.51,197.89c9.52,3.37,19,7,28.49,10.94L207.49,975.35c-3.91-9.44-7.57-19-11-28.5l749-749m-2.64-11.51L185,944.22q8.49,24.82,19.08,48.64l787.39-787.4q-23.79-10.56-48.64-19.08Z" transform="translate(-27.25 -29.6)"/><path class="cls-1" d="M172.75,882.46c-3.38-14.9-6.19-30.05-8.4-45.18L835.94,165.69c15.12,2.21,30.27,5,45.18,8.4Z" transform="translate(-27.25 -29.6)"/><path class="cls-2" d="M837.7,171c11.17,1.68,22.34,3.69,33.41,6L175.68,872.45c-2.32-11.06-4.34-22.24-6-33.41l668-668m-3.53-10.62L159,835.52q4.1,28.88,10.89,56.83L891,171.28q-27.91-6.78-56.83-10.89Z" transform="translate(-27.25 -29.6)"/><path class="cls-1" d="M344.3,1182c-9.07-8.54-17.92-17.41-26.39-26.45l836.27-836.27c9,8.48,17.91,17.32,26.44,26.39Z" transform="translate(-27.25 -29.6)"/><path class="cls-2" d="M1154.28,326.23c6.58,6.27,13.06,12.73,19.36,19.32L344.21,1175c-6.59-6.31-13.06-12.79-19.33-19.37l829.4-829.39m-.23-13.92L311,1155.4q16,17.41,33.45,33.52l843.16-843.16q-16.11-17.37-33.53-33.45Z" transform="translate(-27.25 -29.6)"/><path class="cls-1" d="M311.13,1148.16c-8.58-9.46-16.83-19.17-24.62-29l831.36-831.36c9.77,7.78,19.48,16,29,24.62Z" transform="translate(-27.25 -29.6)"/><path class="cls-2" d="M1118.23,294.55c7.18,5.81,14.31,11.87,21.32,18.12L311.32,1140.9c-6.24-7-12.3-14.15-18.11-21.33l825-825m-.76-13.38L279.83,1118.82q14.82,18.93,31.14,36.58l843.08-843.09q-17.65-16.28-36.58-31.14Z" transform="translate(-27.25 -29.6)"/><path class="cls-1" d="M252.61,1072c-7.1-11-13.85-22.2-20.12-33.45l804.7-804.71c11.26,6.27,22.47,13,33.46,20.12Z" transform="translate(-27.25 -29.6)"/><path class="cls-2" d="M1038.05,240c8.28,4.69,16.53,9.63,24.66,14.77L253.47,1064.06c-5.15-8.14-10.09-16.39-14.77-24.67L1038.05,240m-1.73-12.41-810,810q11.9,21.67,25.5,42.22l826.74-826.74q-20.54-13.59-42.21-25.51Z" transform="translate(-27.25 -29.6)"/><path class="cls-1" d="M280.3,1111.27c-7.57-9.86-15-20.17-22.07-30.76l820.94-820.94c10.58,7.1,20.9,14.51,30.76,22.07Z" transform="translate(-27.25 -29.6)"/><path class="cls-2" d="M1079.79,266c7.7,5.25,15.24,10.64,22.55,16.14L280.82,1103.68c-5.5-7.31-10.9-14.85-16.14-22.55L1079.79,266m-1.26-12.88L251.79,1079.88q13.26,20,28,38.94l837.64-837.65q-18.85-14.79-38.94-28Z" transform="translate(-27.25 -29.6)"/><path class="cls-1" d="M162.67,824.82c-2-16.14-3.36-32.5-4-48.8L774.68,160c16.3.67,32.66,2,48.8,4Z" transform="translate(-27.25 -29.6)"/><path class="cls-2" d="M776.66,165.07c12,.54,24,1.45,36,2.72L166.45,814c-1.27-11.94-2.18-24-2.72-36L776.66,165.07m-4-10.17L153.55,774A601,601,0,0,0,159,835.52L834.17,160.39a597.73,597.73,0,0,0-61.48-5.49Z" transform="translate(-27.25 -29.6)"/><path class="cls-1" d="M210.25,507.86A589.9,589.9,0,0,1,310,355.28l43.95-43.95a590.11,590.11,0,0,1,152.57-99.74Z" transform="translate(-27.25 -29.6)"/><path class="cls-2" d="M482.17,228.86,227.52,483.51a585.45,585.45,0,0,1,86.09-124.78L357.38,315a585.81,585.81,0,0,1,124.79-86.1m46.1-32A596.66,596.66,0,0,0,350.5,307.7l-44.14,44.14a596.91,596.91,0,0,0-110.8,177.77L528.27,196.9Z" transform="translate(-27.25 -29.6)"/><path class="cls-1" d="M306.36,351.84,350.5,307.7A600.7,600.7,0,0,0,306.36,351.84Z" transform="translate(-27.25 -29.6)"/><path class="cls-2" d="M350.5,307.7a600.7,600.7,0,0,0-44.14,44.14L350.5,307.7Z" transform="translate(-27.25 -29.6)"/><path class="cls-1" d="M174.78,611a589.6,589.6,0,0,1,25-78.62L531.08,201.17a587.55,587.55,0,0,1,78.61-25Z" transform="translate(-27.25 -29.6)"/><path class="cls-2" d="M593.17,185.58,184.24,594.51a583.06,583.06,0,0,1,19.85-59.28l329.79-329.8a583.24,583.24,0,0,1,59.29-19.85m32.31-18.17a593.28,593.28,0,0,0-97.21,29.49L195.56,529.61a591.34,591.34,0,0,0-29.49,97.21L625.48,167.41Z" transform="translate(-27.25 -29.6)"/><path class="cls-1" d="M158.2,762.32c-.09-4-.13-7.67-.13-11.22,0-14.59.54-29.32,1.6-43.83L705.92,161c14.52-1.06,29.26-1.6,43.83-1.6,3.61,0,7.29.05,11.22.13Z" transform="translate(-27.25 -29.6)"/><path class="cls-2" d="M749,164.41l-586,586c0-13.6.51-27.33,1.46-40.89L708.14,165.87c13.56-1,27.29-1.44,40.89-1.46m.72-10q-23.24,0-46,1.76L154.82,705q-1.74,22.8-1.75,46.06c0,7.68.19,15.32.48,22.93L772.69,154.9c-7.61-.29-15.25-.49-22.94-.49Z" transform="translate(-27.25 -29.6)"/><path class="cls-1" d="M161,691.78a597.47,597.47,0,0,1,9.64-62.47L628,172a595,595,0,0,1,62.48-9.64Z" transform="translate(-27.25 -29.6)"/><path class="cls-2" d="M676.8,168.92,167.58,678.15c1.93-15.52,4.5-31,7.67-46.36l455.19-455.2c15.34-3.17,30.85-5.73,46.36-7.67m26.9-12.75a596.94,596.94,0,0,0-78.22,11.24L166.07,626.82A595.51,595.51,0,0,0,154.82,705L703.7,156.17Z" transform="translate(-27.25 -29.6)"/><path class="cls-1" d="M187.22,935c-4.37-13.41-8.32-27.18-11.76-41.08L892.55,176.81c13.89,3.44,27.67,7.38,41.07,11.75Z" transform="translate(-27.25 -29.6)"/><path class="cls-2" d="M894.08,182.34c10.18,2.58,20.27,5.42,30.2,8.5L189.49,925.62c-3.08-9.92-5.92-20-8.49-30.2L894.08,182.34M891,171.28,169.93,892.35q6.42,26.4,15.11,51.87L942.87,186.38q-25.43-8.7-51.87-15.1Z" transform="translate(-27.25 -29.6)"/><path class="cls-1" d="M722.91,1342.14c-16.27-.73-32.59-2.13-48.67-4.17l662.38-662.38c2.05,16.08,3.45,32.39,4.17,48.66Z" transform="translate(-27.25 -29.6)"/><path class="cls-2" d="M1332.87,686.41c1.3,11.9,2.25,23.89,2.83,35.87L720.93,1337c-12-.58-24-1.53-35.86-2.83l647.8-647.8m7.35-21.49L663.58,1341.56a597.46,597.46,0,0,0,61.31,5.67l621-621a600.28,600.28,0,0,0-5.66-61.31Z" transform="translate(-27.25 -29.6)"/><path class="cls-1" d="M380.53,1213.46c-9.72-7.78-19.41-16.06-28.89-24.69L1187.42,353c8.63,9.47,16.91,19.16,24.7,28.88Z" transform="translate(-27.25 -29.6)"/><path class="cls-2" d="M1187.24,360.24q9.42,10.53,18.16,21.27L380.17,1206.75q-10.73-8.73-21.27-18.17l828.34-828.34m.34-14.48L344.42,1188.92q17.61,16.32,36.49,31.23l837.89-837.9q-14.86-18.88-31.22-36.49Z" transform="translate(-27.25 -29.6)"/><path class="cls-1" d="M749.75,1342.78c-4.21,0-8.58,0-13.18-.17l604.7-604.69c.11,4.6.17,9,.17,13.18,0,13.7-.5,27.72-1.47,41.69L791.45,1341.31C777.46,1342.29,763.45,1342.78,749.75,1342.78Z" transform="translate(-27.25 -29.6)"/><path class="cls-2" d="M1336.44,749.82v1.28c0,13-.45,26.24-1.33,39.48L789.24,1336.45c-13.25.88-26.51,1.33-39.49,1.33h-1.27l588-588m9.44-23.59-621,621c8.25.34,16.53.55,24.86.55q22.17,0,43.92-1.61L1344.82,795q1.59-21.75,1.62-43.91c0-8.34-.22-16.62-.56-24.87Z" transform="translate(-27.25 -29.6)"/><path class="cls-1" d="M1338.69,808.21a593.35,593.35,0,0,1-9.29,62.13L869,1330.75a595.81,595.81,0,0,1-62.12,9.29Z" transform="translate(-27.25 -29.6)"/><path class="cls-2" d="M1332.2,821.78c-1.86,15.49-4.33,30.91-7.4,46.09L866.52,1326.15c-15.18,3.06-30.59,5.53-46.09,7.39L1332.2,821.78M1344.82,795,793.67,1346.17a597.51,597.51,0,0,0,77.8-10.83L1334,872.81a595.8,595.8,0,0,0,10.82-77.8Z" transform="translate(-27.25 -29.6)"/><path class="cls-1" d="M1290.92,990.68a590.89,590.89,0,0,1-88.12,141l-72.51,72.51a590.45,590.45,0,0,1-140.95,88.12Z" transform="translate(-27.25 -29.6)"/><path class="cls-2" d="M1274.08,1014.59a586.51,586.51,0,0,1-75,113.66l-72.2,72.2a586.51,586.51,0,0,1-113.66,75l260.83-260.83m31.22-45.36L967.89,1306.64a596.09,596.09,0,0,0,165.78-98.81l72.82-72.81a596.53,596.53,0,0,0,98.81-165.79Z" transform="translate(-27.25 -29.6)"/><path class="cls-1" d="M1206.49,1135l-72.82,72.81A600.48,600.48,0,0,0,1206.49,1135Z" transform="translate(-27.25 -29.6)"/><path class="cls-2" d="M1206.49,1135l-72.82,72.81a600.48,600.48,0,0,0,72.82-72.81Z" transform="translate(-27.25 -29.6)"/><path class="cls-1" d="M1325.38,888.5A588.4,588.4,0,0,1,1301,966.43L965.09,1302.37a589.13,589.13,0,0,1-77.94,24.36Z" transform="translate(-27.25 -29.6)"/><path class="cls-2" d="M1316.05,904.9a583.66,583.66,0,0,1-19.3,58.74L962.29,1298.09a582.06,582.06,0,0,1-58.74,19.31l412.5-412.5m18-32.09L871.47,1335.34a592.05,592.05,0,0,0,96.42-28.7L1305.3,969.23a591.76,591.76,0,0,0,28.7-96.42Z" transform="translate(-27.25 -29.6)"/><path class="cls-1" d="M461,1267.64c-11.3-6.33-22.5-13.1-33.4-20.18L1246.12,429c7.08,10.89,13.85,22.09,20.18,33.39Z" transform="translate(-27.25 -29.6)"/><path class="cls-2" d="M1245.26,436.91c5.14,8.09,10.1,16.32,14.82,24.62L460.19,1261.42c-8.3-4.72-16.54-9.68-24.62-14.81l809.69-809.7m1.66-15.8L419.77,1248.26q20.49,13.63,42.14,25.59l810.59-810.6q-11.94-21.63-25.58-42.14Z" transform="translate(-27.25 -29.6)"/><path class="cls-1" d="M505.51,1290.15c-11.89-5.4-23.74-11.27-35.34-17.5l801.14-801.14c6.23,11.61,12.1,23.46,17.49,35.34Z" transform="translate(-27.25 -29.6)"/><path class="cls-2" d="M1270.06,479.83c4.47,8.56,8.74,17.24,12.75,25.94L504.43,1284.16c-8.71-4-17.38-8.29-25.94-12.76l791.57-791.57m2.44-16.58-810.59,810.6q21.81,12,44.69,22.27L1294.78,508q-10.21-22.87-22.28-44.7Z" transform="translate(-27.25 -29.6)"/><path class="cls-1" d="M419.14,1241.82c-10.56-7.12-20.85-14.54-30.69-22.14l829.89-829.89c7.59,9.85,15,20.14,22.14,30.69Z" transform="translate(-27.25 -29.6)"/><path class="cls-2" d="M1217.83,397.37q8.28,11,16.19,22.5L418.53,1235.36c-7.68-5.25-15.21-10.67-22.51-16.18l821.81-821.81m1-15.12-837.89,837.9q18.82,14.82,38.86,28.11l827.15-827.15q-13.31-20-28.12-38.86Z" transform="translate(-27.25 -29.6)"/><path class="cls-1" d="M553.83,1309.54c-13-4.56-25.91-9.61-38.52-15l777.83-777.84c5.45,12.62,10.5,25.54,15.06,38.53Z" transform="translate(-27.25 -29.6)"/><path class="cls-2" d="M1291.44,525.43c3.9,9.37,7.58,18.88,11,28.44l-749.9,749.91c-9.56-3.42-19.07-7.09-28.44-11l767.35-767.35m3.34-17.48L506.6,1296.12q23.74,10.62,48.55,19.17L1314,556.5q-8.55-24.79-19.17-48.55Z" transform="translate(-27.25 -29.6)"/><path class="cls-1" d="M605.36,1325c-13.81-3.46-27.55-7.44-41-11.86l747.4-747.4c4.42,13.43,8.39,27.17,11.86,41Z" transform="translate(-27.25 -29.6)"/><path class="cls-2" d="M1309.53,575.06c3.12,9.92,6,20,8.57,30.12L603.83,1319.45c-10.12-2.59-20.19-5.46-30.12-8.57l735.82-735.82M1314,556.5l-758.8,758.79q25.38,8.76,51.75,15.23l722.28-722.28q-6.48-26.36-15.23-51.74Z" transform="translate(-27.25 -29.6)"/><path class="cls-1" d="M661.82,1336.25c-15.06-2.24-30.17-5.1-45.06-8.52l709.63-709.62c3.41,14.88,6.27,30,8.52,45Z" transform="translate(-27.25 -29.6)"/><path class="cls-2" d="M1323.48,628.09c2.35,11,4.4,22.19,6.11,33.32L660.07,1330.93c-11.13-1.71-22.28-3.75-33.33-6.11l696.74-696.73m5.7-19.85L606.9,1330.52q27.84,6.86,56.68,11l676.64-676.64q-4.17-28.81-11-56.68Z" transform="translate(-27.25 -29.6)"/><path class="cls-3" d="M1097.75,551.7a20.46,20.46,0,0,0-20.46-20.46H769.74a20.48,20.48,0,0,1-16.87-8.87l-50.49-73.54a20.43,20.43,0,0,0-17-8.88l-264.67,1.22A20.45,20.45,0,0,0,400.4,461.6l-.64,580.17a20.46,20.46,0,0,0,20.46,20.47h657.07a20.45,20.45,0,0,0,20.46-20.45Zm-205.18,370c0,15.5-12.81,28.07-28.62,28.07H634.89c-15.8,0-28.61-12.57-28.61-28.07V791.07c0-15.5,12.81-28.07,28.61-28.07h10.92s-2.18-34,0-45c2.64-13.32,15.89-38.55,25.91-47.71s36.86-19.76,50.44-21.81c14.49-2.21,44.25-2.91,58.62,0,12.26,2.48,36,13.12,45,21.81,10,9.64,23.26,35.46,25.9,49.08,2.09,10.7,0,43.62,0,43.62H864c15.81,0,28.62,12.57,28.62,28.07Z" transform="translate(-27.25 -29.6)"/><path class="cls-3" d="M791.65,705.88c-5-5.29-18.25-11.77-25.06-13.28-8-1.77-24.6-1.33-32.67,0-7.56,1.26-22.45,7.64-28.11,13.28s-13,20.94-14.42,29c-1.23,6.72,0,27.39,0,27.39H806.08s1.16-20,0-26.56C804.61,727.47,797.21,711.76,791.65,705.88Z" transform="translate(-27.25 -29.6)"/></svg>